<?xml version="1.0" encoding="UTF-8" standalone="no"?>
<!DOCTYPE svg PUBLIC "-//W3C//DTD SVG 1.1//EN"
 "http://www.w3.org/Graphics/SVG/1.1/DTD/svg11.dtd">
<!-- Generated by graphviz version 2.34.0 (20131021.2036)
 -->
<!-- Title: controllers_diagram Pages: 1 -->
<svg width="3892pt" height="2133pt"
 viewBox="0.00 0.00 3892.33 2133.07" xmlns="http://www.w3.org/2000/svg" xmlns:xlink="http://www.w3.org/1999/xlink">
<g id="graph0" class="graph" transform="scale(1 1) rotate(0) translate(4 2129.07)">
<title>controllers_diagram</title>
<polygon fill="white" stroke="white" points="-4,4 -4,-2129.07 3888.33,-2129.07 3888.33,4 -4,4"/>
<!-- _diagram_info -->
<g id="node1" class="node"><title>_diagram_info</title>
<text text-anchor="start" x="2528" y="-69" font-family="Times,serif" font-size="13.00">Controllers diagram</text>
<text text-anchor="start" x="2528" y="-53.4" font-family="Times,serif" font-size="13.00">Date: Mar 09 2014 &#45; 19:47</text>
<text text-anchor="start" x="2528" y="-37.8" font-family="Times,serif" font-size="13.00">Migration version: 20140308201631</text>
<text text-anchor="start" x="2528" y="-22.2" font-family="Times,serif" font-size="13.00">Generated by RailRoady 1.1.1</text>
<text text-anchor="start" x="2528" y="-6.6" font-family="Times,serif" font-size="13.00">http://railroady.prestonlee.com</text>
</g>
<!-- Api::V1::AlternativeNamesController -->
<g id="node2" class="node"><title>Api::V1::AlternativeNamesController</title>
<ellipse fill="none" stroke="black" cx="158.003" cy="-390.46" rx="158.006" ry="18"/>
<text text-anchor="middle" x="158.003" y="-384.86" font-family="Times,serif" font-size="14.00">Api::V1::AlternativeNamesController</text>
</g>
<!-- Api::V1::AlternativeTitlesController -->
<g id="node3" class="node"><title>Api::V1::AlternativeTitlesController</title>
<ellipse fill="none" stroke="black" cx="2453.62" cy="-1050.46" rx="152.689" ry="18"/>
<text text-anchor="middle" x="2453.62" y="-1044.86" font-family="Times,serif" font-size="14.00">Api::V1::AlternativeTitlesController</text>
</g>
<!-- Api::V1::ApprovalsController -->
<g id="node4" class="node"><title>Api::V1::ApprovalsController</title>
<ellipse fill="none" stroke="black" cx="1620.64" cy="-231.546" rx="127.962" ry="18"/>
<text text-anchor="middle" x="1620.64" y="-225.946" font-family="Times,serif" font-size="14.00">Api::V1::ApprovalsController</text>
</g>
<!-- Api::V1::BadgesController -->
<g id="node5" class="node"><title>Api::V1::BadgesController</title>
<ellipse fill="none" stroke="black" cx="1282.93" cy="-2090.73" rx="116.357" ry="18"/>
<text text-anchor="middle" x="1282.93" y="-2085.13" font-family="Times,serif" font-size="14.00">Api::V1::BadgesController</text>
</g>
<!-- Api::V1::BaseController -->
<g id="node6" class="node"><title>Api::V1::BaseController</title>
<ellipse fill="none" stroke="black" cx="1789.9" cy="-1165.52" rx="106.543" ry="18"/>
<text text-anchor="middle" x="1789.9" y="-1159.92" font-family="Times,serif" font-size="14.00">Api::V1::BaseController</text>
</g>
<!-- Api::V1::BaseController&#45;&gt;Api::V1::AlternativeNamesController -->
<g id="edge1" class="edge"><title>Api::V1::BaseController&#45;&gt;Api::V1::AlternativeNamesController</title>
<path fill="none" stroke="black" d="M1755.95,-1148.27C1707.39,-1123.66 1615.22,-1077.2 1536.13,-1038.87 1012.51,-785.06 370.748,-488.467 200.893,-410.2"/>
<polyline fill="none" stroke="black" points="196.246,-408.059 200.787,-410.151 "/>
</g>
<!-- Api::V1::BaseController&#45;&gt;Api::V1::AlternativeTitlesController -->
<g id="edge2" class="edge"><title>Api::V1::BaseController&#45;&gt;Api::V1::AlternativeTitlesController</title>
<path fill="none" stroke="black" d="M1864.42,-1152.6C1986.88,-1131.37 2230.25,-1089.19 2362.66,-1066.23"/>
<polyline fill="none" stroke="black" points="2367.72,-1065.35 2362.79,-1066.21 "/>
</g>
<!-- Api::V1::BaseController&#45;&gt;Api::V1::ApprovalsController -->
<g id="edge3" class="edge"><title>Api::V1::BaseController&#45;&gt;Api::V1::ApprovalsController</title>
<path fill="none" stroke="black" d="M1792.43,-1147.38C1797.45,-1107.74 1807.02,-1010.56 1792.63,-931.046 1767.88,-794.243 1714.9,-773.843 1679.61,-639.372 1641.99,-496.013 1626.64,-317.59 1622.15,-254.746"/>
<polyline fill="none" stroke="black" points="1621.8,-249.724 1622.15,-254.712 "/>
</g>
<!-- Api::V1::BaseController&#45;&gt;Api::V1::BadgesController -->
<g id="edge4" class="edge"><title>Api::V1::BaseController&#45;&gt;Api::V1::BadgesController</title>
<path fill="none" stroke="black" d="M1774.19,-1183.36C1739.94,-1222.46 1656.37,-1319.01 1591.13,-1403.71 1502,-1519.42 1463.91,-1539.92 1400.93,-1671.7 1333.09,-1813.64 1297.56,-2001.78 1286.65,-2067.16"/>
<polyline fill="none" stroke="black" points="1285.79,-2072.38 1286.6,-2067.45 "/>
</g>
<!-- Api::V1::CastsController -->
<g id="node8" class="node"><title>Api::V1::CastsController</title>
<ellipse fill="none" stroke="black" cx="817.507" cy="-283.045" rx="108.853" ry="18"/>
<text text-anchor="middle" x="817.507" y="-277.445" font-family="Times,serif" font-size="14.00">Api::V1::CastsController</text>
</g>
<!-- Api::V1::BaseController&#45;&gt;Api::V1::CastsController -->
<g id="edge7" class="edge"><title>Api::V1::BaseController&#45;&gt;Api::V1::CastsController</title>
<path fill="none" stroke="black" d="M1770.03,-1147.5C1645.75,-1034.7 976.021,-426.902 841.173,-304.523"/>
<polyline fill="none" stroke="black" points="837.34,-301.044 841.043,-304.405 "/>
</g>
<!-- Api::V1::CompaniesController -->
<g id="node9" class="node"><title>Api::V1::CompaniesController</title>
<ellipse fill="none" stroke="black" cx="2388.78" cy="-727.832" rx="131.403" ry="18"/>
<text text-anchor="middle" x="2388.78" y="-722.232" font-family="Times,serif" font-size="14.00">Api::V1::CompaniesController</text>
</g>
<!-- Api::V1::BaseController&#45;&gt;Api::V1::CompaniesController -->
<g id="edge8" class="edge"><title>Api::V1::BaseController&#45;&gt;Api::V1::CompaniesController</title>
<path fill="none" stroke="black" d="M1814.12,-1147.82C1909.3,-1078.26 2257.52,-823.767 2360.14,-748.767"/>
<polyline fill="none" stroke="black" points="2364.26,-745.752 2360.23,-748.702 "/>
</g>
<!-- Api::V1::CountriesController -->
<g id="node10" class="node"><title>Api::V1::CountriesController</title>
<ellipse fill="none" stroke="black" cx="1806.51" cy="-639.499" rx="125.105" ry="18"/>
<text text-anchor="middle" x="1806.51" y="-633.899" font-family="Times,serif" font-size="14.00">Api::V1::CountriesController</text>
</g>
<!-- Api::V1::BaseController&#45;&gt;Api::V1::CountriesController -->
<g id="edge9" class="edge"><title>Api::V1::BaseController&#45;&gt;Api::V1::CountriesController</title>
<path fill="none" stroke="black" d="M1790.47,-1147.42C1792.98,-1068.06 1802.99,-751.034 1805.78,-662.543"/>
<polyline fill="none" stroke="black" points="1805.94,-657.53 1805.78,-662.528 "/>
</g>
<!-- Api::V1::CrewsController -->
<g id="node11" class="node"><title>Api::V1::CrewsController</title>
<ellipse fill="none" stroke="black" cx="2114.08" cy="-676.942" rx="112.35" ry="18"/>
<text text-anchor="middle" x="2114.08" y="-671.342" font-family="Times,serif" font-size="14.00">Api::V1::CrewsController</text>
</g>
<!-- Api::V1::BaseController&#45;&gt;Api::V1::CrewsController -->
<g id="edge10" class="edge"><title>Api::V1::BaseController&#45;&gt;Api::V1::CrewsController</title>
<path fill="none" stroke="black" d="M1789.99,-1147.45C1790.94,-1106.76 1797.5,-1005.96 1837.63,-934.588 1898.89,-825.624 2022.11,-736.135 2081.12,-697.493"/>
<polyline fill="none" stroke="black" points="2085.59,-694.577 2081.4,-697.305 "/>
</g>
<!-- Api::V1::FollowsController -->
<g id="node12" class="node"><title>Api::V1::FollowsController</title>
<ellipse fill="none" stroke="black" cx="1958.1" cy="-934.717" rx="118.751" ry="18"/>
<text text-anchor="middle" x="1958.1" y="-929.117" font-family="Times,serif" font-size="14.00">Api::V1::FollowsController</text>
</g>
<!-- Api::V1::BaseController&#45;&gt;Api::V1::FollowsController -->
<g id="edge11" class="edge"><title>Api::V1::BaseController&#45;&gt;Api::V1::FollowsController</title>
<path fill="none" stroke="black" d="M1803.1,-1147.41C1833.56,-1105.61 1908.69,-1002.52 1941.88,-956.968"/>
<polyline fill="none" stroke="black" points="1944.96,-952.744 1942.02,-956.785 "/>
</g>
<!-- Api::V1::GenresController -->
<g id="node13" class="node"><title>Api::V1::GenresController</title>
<ellipse fill="none" stroke="black" cx="128.235" cy="-1173.16" rx="115.197" ry="18"/>
<text text-anchor="middle" x="128.235" y="-1167.56" font-family="Times,serif" font-size="14.00">Api::V1::GenresController</text>
</g>
<!-- Api::V1::BaseController&#45;&gt;Api::V1::GenresController -->
<g id="edge12" class="edge"><title>Api::V1::BaseController&#45;&gt;Api::V1::GenresController</title>
<path fill="none" stroke="black" d="M1683.95,-1163.55C1545.41,-1161.16 1295.17,-1157.54 1081.24,-1158.11 781.029,-1158.91 427.689,-1166.13 247.304,-1170.28"/>
<polyline fill="none" stroke="black" points="242.283,-1170.39 247.281,-1170.28 "/>
</g>
<!-- Api::V1::ImagesController -->
<g id="node14" class="node"><title>Api::V1::ImagesController</title>
<ellipse fill="none" stroke="black" cx="2668.09" cy="-1336.69" rx="115.772" ry="18"/>
<text text-anchor="middle" x="2668.09" y="-1331.09" font-family="Times,serif" font-size="14.00">Api::V1::ImagesController</text>
</g>
<!-- Api::V1::BaseController&#45;&gt;Api::V1::ImagesController -->
<g id="edge13" class="edge"><title>Api::V1::BaseController&#45;&gt;Api::V1::ImagesController</title>
<path fill="none" stroke="black" d="M1859.91,-1179.17C2021.97,-1210.76 2421.92,-1288.71 2590.83,-1321.63"/>
<polyline fill="none" stroke="black" points="2595.76,-1322.59 2590.85,-1321.64 "/>
</g>
<!-- Api::V1::KeywordsController -->
<g id="node15" class="node"><title>Api::V1::KeywordsController</title>
<ellipse fill="none" stroke="black" cx="3141.13" cy="-1217.87" rx="127.387" ry="18"/>
<text text-anchor="middle" x="3141.13" y="-1212.27" font-family="Times,serif" font-size="14.00">Api::V1::KeywordsController</text>
</g>
<!-- Api::V1::BaseController&#45;&gt;Api::V1::KeywordsController -->
<g id="edge14" class="edge"><title>Api::V1::BaseController&#45;&gt;Api::V1::KeywordsController</title>
<path fill="none" stroke="black" d="M1893.96,-1169.55C2137.95,-1179.01 2746.32,-1202.58 3012.74,-1212.9"/>
<polyline fill="none" stroke="black" points="3017.8,-1213.09 3012.81,-1212.9 "/>
</g>
<!-- Api::V1::LanguagesController -->
<g id="node16" class="node"><title>Api::V1::LanguagesController</title>
<ellipse fill="none" stroke="black" cx="2001.93" cy="-2103.9" rx="129.659" ry="18"/>
<text text-anchor="middle" x="2001.93" y="-2098.3" font-family="Times,serif" font-size="14.00">Api::V1::LanguagesController</text>
</g>
<!-- Api::V1::BaseController&#45;&gt;Api::V1::LanguagesController -->
<g id="edge15" class="edge"><title>Api::V1::BaseController&#45;&gt;Api::V1::LanguagesController</title>
<path fill="none" stroke="black" d="M1798.63,-1183.62C1839.49,-1268.43 2010.19,-1624.71 2020.55,-1678.73 2049.49,-1829.77 2019.06,-2016.28 2006.67,-2080.72"/>
<polyline fill="none" stroke="black" points="2005.67,-2085.86 2006.63,-2080.95 "/>
</g>
<!-- Api::V1::LikesController -->
<g id="node17" class="node"><title>Api::V1::LikesController</title>
<ellipse fill="none" stroke="black" cx="2165.89" cy="-1071.89" rx="109.409" ry="18"/>
<text text-anchor="middle" x="2165.89" y="-1066.29" font-family="Times,serif" font-size="14.00">Api::V1::LikesController</text>
</g>
<!-- Api::V1::BaseController&#45;&gt;Api::V1::LikesController -->
<g id="edge16" class="edge"><title>Api::V1::BaseController&#45;&gt;Api::V1::LikesController</title>
<path fill="none" stroke="black" d="M1849.89,-1150.58C1918.33,-1133.54 2029.86,-1105.77 2100.48,-1088.18"/>
<polyline fill="none" stroke="black" points="2105.49,-1086.93 2100.64,-1088.14 "/>
</g>
<!-- Api::V1::ListItemsController -->
<g id="node18" class="node"><title>Api::V1::ListItemsController</title>
<ellipse fill="none" stroke="black" cx="2716.92" cy="-698.787" rx="124.455" ry="18"/>
<text text-anchor="middle" x="2716.92" y="-693.187" font-family="Times,serif" font-size="14.00">Api::V1::ListItemsController</text>
</g>
<!-- Api::V1::BaseController&#45;&gt;Api::V1::ListItemsController -->
<g id="edge17" class="edge"><title>Api::V1::BaseController&#45;&gt;Api::V1::ListItemsController</title>
<path fill="none" stroke="black" d="M1823.99,-1148.36C1967.79,-1075.96 2524.42,-795.706 2677.67,-718.549"/>
<polyline fill="none" stroke="black" points="2682.52,-716.108 2678.05,-718.357 "/>
</g>
<!-- Api::V1::ListKeywordsController -->
<g id="node19" class="node"><title>Api::V1::ListKeywordsController</title>
<ellipse fill="none" stroke="black" cx="827.759" cy="-2062.59" rx="142.432" ry="18"/>
<text text-anchor="middle" x="827.759" y="-2056.99" font-family="Times,serif" font-size="14.00">Api::V1::ListKeywordsController</text>
</g>
<!-- Api::V1::BaseController&#45;&gt;Api::V1::ListKeywordsController -->
<g id="edge18" class="edge"><title>Api::V1::BaseController&#45;&gt;Api::V1::ListKeywordsController</title>
<path fill="none" stroke="black" d="M1770.68,-1183.44C1648.73,-1297.15 983.491,-1917.39 850.794,-2041.11"/>
<polyline fill="none" stroke="black" points="847.024,-2044.62 850.681,-2041.21 "/>
</g>
<!-- Api::V1::ListTagsController -->
<g id="node20" class="node"><title>Api::V1::ListTagsController</title>
<ellipse fill="none" stroke="black" cx="160.683" cy="-1953.87" rx="120.74" ry="18"/>
<text text-anchor="middle" x="160.683" y="-1948.27" font-family="Times,serif" font-size="14.00">Api::V1::ListTagsController</text>
</g>
<!-- Api::V1::BaseController&#45;&gt;Api::V1::ListTagsController -->
<g id="edge19" class="edge"><title>Api::V1::BaseController&#45;&gt;Api::V1::ListTagsController</title>
<path fill="none" stroke="black" d="M1764.62,-1183.21C1718.75,-1214.93 1618.2,-1282.71 1528.36,-1331.33 1027.44,-1602.46 386.15,-1863.93 208.269,-1935.01"/>
<polyline fill="none" stroke="black" points="203.395,-1936.95 208.038,-1935.1 "/>
</g>
<!-- Api::V1::ListsController -->
<g id="node21" class="node"><title>Api::V1::ListsController</title>
<ellipse fill="none" stroke="black" cx="1420.24" cy="-1331.17" rx="106.562" ry="18"/>
<text text-anchor="middle" x="1420.24" y="-1325.57" font-family="Times,serif" font-size="14.00">Api::V1::ListsController</text>
</g>
<!-- Api::V1::BaseController&#45;&gt;Api::V1::ListsController -->
<g id="edge20" class="edge"><title>Api::V1::BaseController&#45;&gt;Api::V1::ListsController</title>
<path fill="none" stroke="black" d="M1752.07,-1182.47C1682.66,-1213.57 1535.41,-1279.56 1462.69,-1312.15"/>
<polyline fill="none" stroke="black" points="1458.01,-1314.24 1462.57,-1312.2 "/>
</g>
<!-- Api::V1::LocksController -->
<g id="node22" class="node"><title>Api::V1::LocksController</title>
<ellipse fill="none" stroke="black" cx="1679.68" cy="-930.989" rx="111.2" ry="18"/>
<text text-anchor="middle" x="1679.68" y="-925.389" font-family="Times,serif" font-size="14.00">Api::V1::LocksController</text>
</g>
<!-- Api::V1::BaseController&#45;&gt;Api::V1::LocksController -->
<g id="edge21" class="edge"><title>Api::V1::BaseController&#45;&gt;Api::V1::LocksController</title>
<path fill="none" stroke="black" d="M1781.43,-1147.51C1761.6,-1105.3 1712.15,-1000.09 1690.33,-953.637"/>
<polyline fill="none" stroke="black" points="1688.18,-949.064 1690.3,-953.59 "/>
</g>
<!-- Api::V1::MediaKeywordsController -->
<g id="node23" class="node"><title>Api::V1::MediaKeywordsController</title>
<ellipse fill="none" stroke="black" cx="1136.58" cy="-763.128" rx="152.228" ry="18"/>
<text text-anchor="middle" x="1136.58" y="-757.528" font-family="Times,serif" font-size="14.00">Api::V1::MediaKeywordsController</text>
</g>
<!-- Api::V1::BaseController&#45;&gt;Api::V1::MediaKeywordsController -->
<g id="edge22" class="edge"><title>Api::V1::BaseController&#45;&gt;Api::V1::MediaKeywordsController</title>
<path fill="none" stroke="black" d="M1761.41,-1147.97C1655.43,-1082.7 1284.26,-854.086 1170.19,-783.827"/>
<polyline fill="none" stroke="black" points="1165.59,-780.998 1169.85,-783.62 "/>
</g>
<!-- Api::V1::MediaTagsController -->
<g id="node24" class="node"><title>Api::V1::MediaTagsController</title>
<ellipse fill="none" stroke="black" cx="2182.34" cy="-1661.35" rx="130.535" ry="18"/>
<text text-anchor="middle" x="2182.34" y="-1655.75" font-family="Times,serif" font-size="14.00">Api::V1::MediaTagsController</text>
</g>
<!-- Api::V1::BaseController&#45;&gt;Api::V1::MediaTagsController -->
<g id="edge23" class="edge"><title>Api::V1::BaseController&#45;&gt;Api::V1::MediaTagsController</title>
<path fill="none" stroke="black" d="M1796.83,-1183.71C1810.74,-1218.98 1844.31,-1298.38 1886.07,-1357.03 1970.84,-1476.11 2101.98,-1593.26 2156.84,-1640.06"/>
<polyline fill="none" stroke="black" points="2160.66,-1643.3 2156.85,-1640.06 "/>
</g>
<!-- Api::V1::MovieGenresController -->
<g id="node25" class="node"><title>Api::V1::MovieGenresController</title>
<ellipse fill="none" stroke="black" cx="2693.9" cy="-2080.34" rx="140.123" ry="18"/>
<text text-anchor="middle" x="2693.9" y="-2074.74" font-family="Times,serif" font-size="14.00">Api::V1::MovieGenresController</text>
</g>
<!-- Api::V1::BaseController&#45;&gt;Api::V1::MovieGenresController -->
<g id="edge24" class="edge"><title>Api::V1::BaseController&#45;&gt;Api::V1::MovieGenresController</title>
<path fill="none" stroke="black" d="M1795.63,-1183.58C1807.75,-1219.68 1838.82,-1301.98 1886.07,-1357.03 2038.17,-1534.28 2139.83,-1506.31 2314.45,-1661.42 2468.8,-1798.52 2625.72,-1993.21 2676.75,-2058.24"/>
<polyline fill="none" stroke="black" points="2679.96,-2062.33 2676.87,-2058.4 "/>
</g>
<!-- Api::V1::MovieKeywordsController -->
<g id="node26" class="node"><title>Api::V1::MovieKeywordsController</title>
<ellipse fill="none" stroke="black" cx="1658.07" cy="-2107.07" rx="152.812" ry="18"/>
<text text-anchor="middle" x="1658.07" y="-2101.47" font-family="Times,serif" font-size="14.00">Api::V1::MovieKeywordsController</text>
</g>
<!-- Api::V1::BaseController&#45;&gt;Api::V1::MovieKeywordsController -->
<g id="edge25" class="edge"><title>Api::V1::BaseController&#45;&gt;Api::V1::MovieKeywordsController</title>
<path fill="none" stroke="black" d="M1796.77,-1183.71C1810.98,-1223.52 1841.32,-1321.4 1829.91,-1403.92 1811.41,-1537.66 1736.18,-1548.49 1700.22,-1678.63 1658.79,-1828.58 1656.86,-2017.93 1657.59,-2083.47"/>
<polyline fill="none" stroke="black" points="1657.66,-2088.7 1657.6,-2083.7 "/>
</g>
<!-- Api::V1::MovieLanguagesController -->
<g id="node27" class="node"><title>Api::V1::MovieLanguagesController</title>
<ellipse fill="none" stroke="black" cx="1962" cy="-228" rx="154.584" ry="18"/>
<text text-anchor="middle" x="1962" y="-222.4" font-family="Times,serif" font-size="14.00">Api::V1::MovieLanguagesController</text>
</g>
<!-- Api::V1::BaseController&#45;&gt;Api::V1::MovieLanguagesController -->
<g id="edge26" class="edge"><title>Api::V1::BaseController&#45;&gt;Api::V1::MovieLanguagesController</title>
<path fill="none" stroke="black" d="M1792.94,-1147.4C1799.67,-1108.24 1816.87,-1012.95 1837.63,-934.588 1872.92,-801.349 1907.15,-774.935 1933.41,-639.627 1961.68,-493.934 1962.92,-314.465 1962.36,-251.308"/>
<polyline fill="none" stroke="black" points="1962.31,-246.261 1962.36,-251.26 "/>
</g>
<!-- Api::V1::MovieMetadatasController -->
<g id="node28" class="node"><title>Api::V1::MovieMetadatasController</title>
<ellipse fill="none" stroke="black" cx="2997.56" cy="-1586.55" rx="152.793" ry="18"/>
<text text-anchor="middle" x="2997.56" y="-1580.95" font-family="Times,serif" font-size="14.00">Api::V1::MovieMetadatasController</text>
</g>
<!-- Api::V1::BaseController&#45;&gt;Api::V1::MovieMetadatasController -->
<g id="edge27" class="edge"><title>Api::V1::BaseController&#45;&gt;Api::V1::MovieMetadatasController</title>
<path fill="none" stroke="black" d="M1819.4,-1182.94C1879.82,-1218.05 2022.78,-1298.21 2150.64,-1348.01 2424.95,-1454.86 2766.21,-1536.02 2918.17,-1569.61"/>
<polyline fill="none" stroke="black" points="2923.5,-1570.79 2918.62,-1569.71 "/>
</g>
<!-- Api::V1::MoviesController -->
<g id="node29" class="node"><title>Api::V1::MoviesController</title>
<ellipse fill="none" stroke="black" cx="1417.81" cy="-1038.73" rx="116.942" ry="18"/>
<text text-anchor="middle" x="1417.81" y="-1033.13" font-family="Times,serif" font-size="14.00">Api::V1::MoviesController</text>
</g>
<!-- Api::V1::BaseController&#45;&gt;Api::V1::MoviesController -->
<g id="edge28" class="edge"><title>Api::V1::BaseController&#45;&gt;Api::V1::MoviesController</title>
<path fill="none" stroke="black" d="M1742.39,-1149.34C1672.94,-1125.67 1544.07,-1081.75 1471.34,-1056.97"/>
<polyline fill="none" stroke="black" points="1466.21,-1055.22 1470.94,-1056.83 "/>
</g>
<!-- Api::V1::PendingItemsController -->
<g id="node30" class="node"><title>Api::V1::PendingItemsController</title>
<ellipse fill="none" stroke="black" cx="1476.36" cy="-679.419" rx="140.717" ry="18"/>
<text text-anchor="middle" x="1476.36" y="-673.819" font-family="Times,serif" font-size="14.00">Api::V1::PendingItemsController</text>
</g>
<!-- Api::V1::BaseController&#45;&gt;Api::V1::PendingItemsController -->
<g id="edge29" class="edge"><title>Api::V1::BaseController&#45;&gt;Api::V1::PendingItemsController</title>
<path fill="none" stroke="black" d="M1767.73,-1147.8C1723.64,-1111.51 1624.28,-1024.23 1566.73,-930.932 1519.35,-854.122 1491.8,-748.839 1481.3,-702.69"/>
<polyline fill="none" stroke="black" points="1480.16,-697.622 1481.26,-702.501 "/>
</g>
<!-- Api::V1::PeopleController -->
<g id="node31" class="node"><title>Api::V1::PeopleController</title>
<ellipse fill="none" stroke="black" cx="2776.51" cy="-1038.22" rx="114.066" ry="18"/>
<text text-anchor="middle" x="2776.51" y="-1032.62" font-family="Times,serif" font-size="14.00">Api::V1::PeopleController</text>
</g>
<!-- Api::V1::BaseController&#45;&gt;Api::V1::PeopleController -->
<g id="edge30" class="edge"><title>Api::V1::BaseController&#45;&gt;Api::V1::PeopleController</title>
<path fill="none" stroke="black" d="M1874.87,-1154.56C2058.69,-1130.84 2492.07,-1074.92 2683.19,-1050.26"/>
<polyline fill="none" stroke="black" points="2688.21,-1049.61 2683.25,-1050.25 "/>
</g>
<!-- Api::V1::PersonSocialAppsController -->
<g id="node32" class="node"><title>Api::V1::PersonSocialAppsController</title>
<ellipse fill="none" stroke="black" cx="1860.38" cy="-1678.68" rx="158.629" ry="18"/>
<text text-anchor="middle" x="1860.38" y="-1673.08" font-family="Times,serif" font-size="14.00">Api::V1::PersonSocialAppsController</text>
</g>
<!-- Api::V1::BaseController&#45;&gt;Api::V1::PersonSocialAppsController -->
<g id="edge31" class="edge"><title>Api::V1::BaseController&#45;&gt;Api::V1::PersonSocialAppsController</title>
<path fill="none" stroke="black" d="M1793.31,-1183.71C1800.69,-1223.52 1818.42,-1321.41 1829.91,-1403.92 1842.85,-1496.84 1853.79,-1608.05 1858.25,-1655.44"/>
<polyline fill="none" stroke="black" points="1858.73,-1660.64 1858.27,-1655.66 "/>
</g>
<!-- Api::V1::ProductionCompaniesController -->
<g id="node33" class="node"><title>Api::V1::ProductionCompaniesController</title>
<ellipse fill="none" stroke="black" cx="2325.82" cy="-1348.09" rx="173.665" ry="18"/>
<text text-anchor="middle" x="2325.82" y="-1342.49" font-family="Times,serif" font-size="14.00">Api::V1::ProductionCompaniesController</text>
</g>
<!-- Api::V1::BaseController&#45;&gt;Api::V1::ProductionCompaniesController -->
<g id="edge32" class="edge"><title>Api::V1::BaseController&#45;&gt;Api::V1::ProductionCompaniesController</title>
<path fill="none" stroke="black" d="M1837.46,-1181.72C1936.56,-1215.49 2164.71,-1293.21 2270.32,-1329.19"/>
<polyline fill="none" stroke="black" points="2275.26,-1330.87 2270.52,-1329.26 "/>
</g>
<!-- Api::V1::ReleasesController -->
<g id="node34" class="node"><title>Api::V1::ReleasesController</title>
<ellipse fill="none" stroke="black" cx="1258.64" cy="-256.467" rx="121.57" ry="18"/>
<text text-anchor="middle" x="1258.64" y="-250.867" font-family="Times,serif" font-size="14.00">Api::V1::ReleasesController</text>
</g>
<!-- Api::V1::BaseController&#45;&gt;Api::V1::ReleasesController -->
<g id="edge33" class="edge"><title>Api::V1::BaseController&#45;&gt;Api::V1::ReleasesController</title>
<path fill="none" stroke="black" d="M1793.77,-1147.35C1801.52,-1107.23 1816.31,-1008.52 1792.63,-931.046 1698.11,-621.743 1381.46,-353.066 1286.07,-277.571"/>
<polyline fill="none" stroke="black" points="1281.96,-274.332 1285.89,-277.429 "/>
</g>
<!-- Api::V1::ReportsController -->
<g id="node35" class="node"><title>Api::V1::ReportsController</title>
<ellipse fill="none" stroke="black" cx="1710.52" cy="-1403.82" rx="117.582" ry="18"/>
<text text-anchor="middle" x="1710.52" y="-1398.22" font-family="Times,serif" font-size="14.00">Api::V1::ReportsController</text>
</g>
<!-- Api::V1::BaseController&#45;&gt;Api::V1::ReportsController -->
<g id="edge34" class="edge"><title>Api::V1::BaseController&#45;&gt;Api::V1::ReportsController</title>
<path fill="none" stroke="black" d="M1783.8,-1183.83C1769.51,-1226.73 1733.87,-1333.71 1718.16,-1380.87"/>
<polyline fill="none" stroke="black" points="1716.53,-1385.78 1718.11,-1381.04 "/>
</g>
<!-- Api::V1::RevenueCountriesController -->
<g id="node36" class="node"><title>Api::V1::RevenueCountriesController</title>
<ellipse fill="none" stroke="black" cx="2533.81" cy="-1647.65" rx="159.175" ry="18"/>
<text text-anchor="middle" x="2533.81" y="-1642.05" font-family="Times,serif" font-size="14.00">Api::V1::RevenueCountriesController</text>
</g>
<!-- Api::V1::BaseController&#45;&gt;Api::V1::RevenueCountriesController -->
<g id="edge35" class="edge"><title>Api::V1::BaseController&#45;&gt;Api::V1::RevenueCountriesController</title>
<path fill="none" stroke="black" d="M1826.93,-1182.5C1894.02,-1213.81 2039.33,-1284.15 2153.81,-1357.33 2294.88,-1447.5 2449.5,-1575.76 2508.78,-1626.15"/>
<polyline fill="none" stroke="black" points="2512.89,-1629.64 2509.08,-1626.4 "/>
</g>
<!-- Api::V1::SocialAppsController -->
<g id="node38" class="node"><title>Api::V1::SocialAppsController</title>
<ellipse fill="none" stroke="black" cx="2019.94" cy="-1357.18" rx="132.053" ry="18"/>
<text text-anchor="middle" x="2019.94" y="-1351.58" font-family="Times,serif" font-size="14.00">Api::V1::SocialAppsController</text>
</g>
<!-- Api::V1::BaseController&#45;&gt;Api::V1::SocialAppsController -->
<g id="edge37" class="edge"><title>Api::V1::BaseController&#45;&gt;Api::V1::SocialAppsController</title>
<path fill="none" stroke="black" d="M1811.13,-1183.21C1853.56,-1218.56 1948.68,-1297.82 1994.42,-1335.92"/>
<polyline fill="none" stroke="black" points="1998.43,-1339.26 1994.58,-1336.06 "/>
</g>
<!-- Api::V1::StatusesController -->
<g id="node39" class="node"><title>Api::V1::StatusesController</title>
<ellipse fill="none" stroke="black" cx="2338.52" cy="-2099.97" rx="119.307" ry="18"/>
<text text-anchor="middle" x="2338.52" y="-2094.37" font-family="Times,serif" font-size="14.00">Api::V1::StatusesController</text>
</g>
<!-- Api::V1::BaseController&#45;&gt;Api::V1::StatusesController -->
<g id="edge38" class="edge"><title>Api::V1::BaseController&#45;&gt;Api::V1::StatusesController</title>
<path fill="none" stroke="black" d="M1798.74,-1183.57C1815.48,-1217.63 1853.08,-1293.67 1886.07,-1357.03 1957.03,-1493.31 1971.47,-1529.35 2050.22,-1661.28 2147.83,-1824.83 2278.2,-2013.71 2322.79,-2077.57"/>
<polyline fill="none" stroke="black" points="2325.85,-2081.95 2322.99,-2077.85 "/>
</g>
<!-- Api::V1::TagsController -->
<g id="node40" class="node"><title>Api::V1::TagsController</title>
<ellipse fill="none" stroke="black" cx="723.967" cy="-1460.26" rx="105.695" ry="18"/>
<text text-anchor="middle" x="723.967" y="-1454.66" font-family="Times,serif" font-size="14.00">Api::V1::TagsController</text>
</g>
<!-- Api::V1::BaseController&#45;&gt;Api::V1::TagsController -->
<g id="edge39" class="edge"><title>Api::V1::BaseController&#45;&gt;Api::V1::TagsController</title>
<path fill="none" stroke="black" d="M1734.09,-1180.95C1551.62,-1231.41 973.576,-1391.24 784.481,-1443.53"/>
<polyline fill="none" stroke="black" points="779.543,-1444.89 784.362,-1443.56 "/>
</g>
<!-- Api::V1::UserBadgesController -->
<g id="node41" class="node"><title>Api::V1::UserBadgesController</title>
<ellipse fill="none" stroke="black" cx="721.002" cy="-887.947" rx="134.325" ry="18"/>
<text text-anchor="middle" x="721.002" y="-882.347" font-family="Times,serif" font-size="14.00">Api::V1::UserBadgesController</text>
</g>
<!-- Api::V1::BaseController&#45;&gt;Api::V1::UserBadgesController -->
<g id="edge40" class="edge"><title>Api::V1::BaseController&#45;&gt;Api::V1::UserBadgesController</title>
<path fill="none" stroke="black" d="M1728.54,-1150.73C1640.83,-1129.49 1474.62,-1088.9 1333.55,-1052.49 1132.89,-1000.69 896.203,-936.123 784.912,-905.557"/>
<polyline fill="none" stroke="black" points="780.032,-904.216 784.854,-905.541 "/>
</g>
<!-- Api::V1::UsersController -->
<g id="node42" class="node"><title>Api::V1::UsersController</title>
<ellipse fill="none" stroke="black" cx="1512.27" cy="-1671.8" rx="109.985" ry="18"/>
<text text-anchor="middle" x="1512.27" y="-1666.2" font-family="Times,serif" font-size="14.00">Api::V1::UsersController</text>
</g>
<!-- Api::V1::BaseController&#45;&gt;Api::V1::UsersController -->
<g id="edge41" class="edge"><title>Api::V1::BaseController&#45;&gt;Api::V1::UsersController</title>
<path fill="none" stroke="black" d="M1770.46,-1183.3C1730.97,-1220.45 1640.88,-1310.61 1591.13,-1403.71 1546.24,-1487.73 1523.82,-1600.57 1515.81,-1648.59"/>
<polyline fill="none" stroke="black" points="1514.99,-1653.58 1515.8,-1648.65 "/>
</g>
<!-- Api::V1::VideosController -->
<g id="node43" class="node"><title>Api::V1::VideosController</title>
<ellipse fill="none" stroke="black" cx="1146.81" cy="-1595.18" rx="114.565" ry="18"/>
<text text-anchor="middle" x="1146.81" y="-1589.58" font-family="Times,serif" font-size="14.00">Api::V1::VideosController</text>
</g>
<!-- Api::V1::BaseController&#45;&gt;Api::V1::VideosController -->
<g id="edge42" class="edge"><title>Api::V1::BaseController&#45;&gt;Api::V1::VideosController</title>
<path fill="none" stroke="black" d="M1763.49,-1183.17C1660.68,-1251.85 1287.47,-1501.2 1177.5,-1574.67"/>
<polyline fill="none" stroke="black" points="1173.08,-1577.62 1177.24,-1574.85 "/>
</g>
<!-- Api::V1::ViewsController -->
<g id="node44" class="node"><title>Api::V1::ViewsController</title>
<ellipse fill="none" stroke="black" cx="1080.67" cy="-1177.71" rx="111.7" ry="18"/>
<text text-anchor="middle" x="1080.67" y="-1172.11" font-family="Times,serif" font-size="14.00">Api::V1::ViewsController</text>
</g>
<!-- Api::V1::BaseController&#45;&gt;Api::V1::ViewsController -->
<g id="edge43" class="edge"><title>Api::V1::BaseController&#45;&gt;Api::V1::ViewsController</title>
<path fill="none" stroke="black" d="M1683.72,-1167.35C1553.14,-1169.59 1332.26,-1173.38 1197.14,-1175.71"/>
<polyline fill="none" stroke="black" points="1191.97,-1175.79 1196.97,-1175.71 "/>
</g>
<!-- Api::V1::CacheController -->
<g id="node7" class="node"><title>Api::V1::CacheController</title>
<ellipse fill="none" stroke="black" cx="3122.11" cy="-2060.26" rx="111.756" ry="18"/>
<text text-anchor="middle" x="3122.11" y="-2054.66" font-family="Times,serif" font-size="14.00">Api::V1::CacheController</text>
</g>
<!-- Api::V1::SearchController -->
<g id="node37" class="node"><title>Api::V1::SearchController</title>
<ellipse fill="none" stroke="black" cx="2620.94" cy="-245.216" rx="114.047" ry="18"/>
<text text-anchor="middle" x="2620.94" y="-239.616" font-family="Times,serif" font-size="14.00">Api::V1::SearchController</text>
</g>
<!-- ApplicationController -->
<g id="node45" class="node"><title>ApplicationController</title>
<ellipse fill="none" stroke="black" cx="3151.44" cy="-782.127" rx="96.1448" ry="18"/>
<text text-anchor="middle" x="3151.44" y="-776.527" font-family="Times,serif" font-size="14.00">ApplicationController</text>
</g>
<!-- ApplicationController&#45;&gt;Api::V1::BaseController -->
<g id="edge5" class="edge"><title>ApplicationController&#45;&gt;Api::V1::BaseController</title>
<path fill="none" stroke="black" d="M3089.76,-796.021C2925.53,-833.468 2464.49,-941.547 2088.33,-1057.89 1998.25,-1085.75 1895.2,-1124.48 1836.8,-1147.08"/>
<polyline fill="none" stroke="black" points="1831.98,-1148.95 1836.65,-1147.14 "/>
</g>
<!-- ApplicationController&#45;&gt;Api::V1::CacheController -->
<g id="edge6" class="edge"><title>ApplicationController&#45;&gt;Api::V1::CacheController</title>
<path fill="none" stroke="black" d="M3159.53,-800.344C3185.03,-859.282 3262.47,-1050.67 3270.17,-1217.91 3285.34,-1547.24 3162.82,-1938.93 3130.04,-2037.09"/>
<polyline fill="none" stroke="black" points="3128.37,-2042.08 3129.96,-2037.34 "/>
</g>
<!-- ApplicationController&#45;&gt;Api::V1::SearchController -->
<g id="edge36" class="edge"><title>ApplicationController&#45;&gt;Api::V1::SearchController</title>
<path fill="none" stroke="black" d="M3133.78,-764.263C3054.24,-683.761 2729.23,-354.821 2642.37,-266.907"/>
<polyline fill="none" stroke="black" points="2638.65,-263.147 2642.17,-266.704 "/>
</g>
<!-- GenresController -->
<g id="node46" class="node"><title>GenresController</title>
<ellipse fill="none" stroke="black" cx="3806.25" cy="-947.579" rx="78.1575" ry="18"/>
<text text-anchor="middle" x="3806.25" y="-941.979" font-family="Times,serif" font-size="14.00">GenresController</text>
</g>
<!-- ApplicationController&#45;&gt;GenresController -->
<g id="edge44" class="edge"><title>ApplicationController&#45;&gt;GenresController</title>
<path fill="none" stroke="black" d="M3208.97,-796.665C3332.87,-827.97 3623.73,-901.461 3748.14,-932.896"/>
<polyline fill="none" stroke="black" points="3753.22,-934.179 3748.37,-932.954 "/>
</g>
<!-- ImagesController -->
<g id="node47" class="node"><title>ImagesController</title>
<ellipse fill="none" stroke="black" cx="2282.39" cy="-255.089" rx="78.7327" ry="18"/>
<text text-anchor="middle" x="2282.39" y="-249.489" font-family="Times,serif" font-size="14.00">ImagesController</text>
</g>
<!-- ApplicationController&#45;&gt;ImagesController -->
<g id="edge45" class="edge"><title>ApplicationController&#45;&gt;ImagesController</title>
<path fill="none" stroke="black" d="M3123.02,-764.891C2992.65,-685.829 2452.34,-358.152 2314.51,-274.565"/>
<polyline fill="none" stroke="black" points="2310.16,-271.929 2314.44,-274.522 "/>
</g>
<!-- ListsController -->
<g id="node48" class="node"><title>ListsController</title>
<ellipse fill="none" stroke="black" cx="3760.34" cy="-321.554" rx="69.522" ry="18"/>
<text text-anchor="middle" x="3760.34" y="-315.954" font-family="Times,serif" font-size="14.00">ListsController</text>
</g>
<!-- ApplicationController&#45;&gt;ListsController -->
<g id="edge46" class="edge"><title>ApplicationController&#45;&gt;ListsController</title>
<path fill="none" stroke="black" d="M3174.56,-764.635C3269.8,-692.595 3631.45,-419.045 3733.42,-341.911"/>
<polyline fill="none" stroke="black" points="3737.51,-338.818 3733.53,-341.834 "/>
</g>
<!-- MoviesController -->
<g id="node49" class="node"><title>MoviesController</title>
<ellipse fill="none" stroke="black" cx="3066.91" cy="-261.27" rx="79.9021" ry="18"/>
<text text-anchor="middle" x="3066.91" y="-255.67" font-family="Times,serif" font-size="14.00">MoviesController</text>
</g>
<!-- ApplicationController&#45;&gt;MoviesController -->
<g id="edge47" class="edge"><title>ApplicationController&#45;&gt;MoviesController</title>
<path fill="none" stroke="black" d="M3148.48,-763.895C3135.66,-684.894 3084.91,-372.181 3070.66,-284.332"/>
<polyline fill="none" stroke="black" points="3069.85,-279.354 3070.65,-284.289 "/>
</g>
<!-- PeopleController -->
<g id="node50" class="node"><title>PeopleController</title>
<ellipse fill="none" stroke="black" cx="3782.47" cy="-2022.03" rx="77.0261" ry="18"/>
<text text-anchor="middle" x="3782.47" y="-2016.43" font-family="Times,serif" font-size="14.00">PeopleController</text>
</g>
<!-- ApplicationController&#45;&gt;PeopleController -->
<g id="edge48" class="edge"><title>ApplicationController&#45;&gt;PeopleController</title>
<path fill="none" stroke="black" d="M3160.6,-800.133C3231.44,-939.334 3691.23,-1842.77 3770.76,-1999.02"/>
<polyline fill="none" stroke="black" points="3773.21,-2003.85 3770.94,-1999.39 "/>
</g>
<!-- VideosController -->
<g id="node51" class="node"><title>VideosController</title>
<ellipse fill="none" stroke="black" cx="3732.3" cy="-1453.45" rx="77.5258" ry="18"/>
<text text-anchor="middle" x="3732.3" y="-1447.85" font-family="Times,serif" font-size="14.00">VideosController</text>
</g>
<!-- ApplicationController&#45;&gt;VideosController -->
<g id="edge49" class="edge"><title>ApplicationController&#45;&gt;VideosController</title>
<path fill="none" stroke="black" d="M3166.97,-800.084C3248.3,-894.072 3624.6,-1328.97 3713.46,-1431.68"/>
<polyline fill="none" stroke="black" points="3716.99,-1435.75 3713.72,-1431.97 "/>
</g>
</g>
</svg>
