<?xml version="1.0" encoding="UTF-8" standalone="no"?>
<!DOCTYPE svg PUBLIC "-//W3C//DTD SVG 1.1//EN"
 "http://www.w3.org/Graphics/SVG/1.1/DTD/svg11.dtd">
<!-- Generated by graphviz version 2.34.0 (20131021.2036)
 -->
<!-- Title: models_diagram Pages: 1 -->
<svg width="3228pt" height="526pt"
 viewBox="0.00 0.00 3228.00 526.00" xmlns="http://www.w3.org/2000/svg" xmlns:xlink="http://www.w3.org/1999/xlink">
<g id="graph0" class="graph" transform="scale(1 1) rotate(0) translate(4 522)">
<title>models_diagram</title>
<polygon fill="white" stroke="white" points="-4,4 -4,-522 3224,-522 3224,4 -4,4"/>
<!-- _diagram_info -->
<g id="node1" class="node"><title>_diagram_info</title>
<text text-anchor="start" x="1140.31" y="-501" font-family="Times,serif" font-size="13.00">Models diagram</text>
<text text-anchor="start" x="1140.31" y="-485.4" font-family="Times,serif" font-size="13.00">Date: Mar 09 2014 &#45; 19:47</text>
<text text-anchor="start" x="1140.31" y="-469.8" font-family="Times,serif" font-size="13.00">Migration version: 20140308201631</text>
<text text-anchor="start" x="1140.31" y="-454.2" font-family="Times,serif" font-size="13.00">Generated by RailRoady 1.1.1</text>
<text text-anchor="start" x="1140.31" y="-438.6" font-family="Times,serif" font-size="13.00">http://railroady.prestonlee.com</text>
</g>
<!-- AdminUser -->
<g id="node2" class="node"><title>AdminUser</title>
<ellipse fill="none" stroke="black" cx="56" cy="-378" rx="56.144" ry="18"/>
<text text-anchor="middle" x="56" y="-372.4" font-family="Times,serif" font-size="14.00">AdminUser</text>
</g>
<!-- AlternativeName -->
<g id="node3" class="node"><title>AlternativeName</title>
<ellipse fill="none" stroke="black" cx="1415" cy="-162" rx="77.2975" ry="18"/>
<text text-anchor="middle" x="1415" y="-156.4" font-family="Times,serif" font-size="14.00">AlternativeName</text>
</g>
<!-- PendingItem -->
<g id="node27" class="node"><title>PendingItem</title>
<ellipse fill="none" stroke="black" cx="1928" cy="-18" rx="60.0809" ry="18"/>
<text text-anchor="middle" x="1928" y="-12.4" font-family="Times,serif" font-size="14.00">PendingItem</text>
</g>
<!-- AlternativeName&#45;&gt;PendingItem -->
<g id="edge2" class="edge"><title>AlternativeName&#45;&gt;PendingItem</title>
<path fill="none" stroke="#4cd3d8" d="M1478.82,-147.925C1545.27,-134.184 1642.04,-113.773 1659,-108 1694.38,-95.9547 1699.96,-84.9981 1735,-72 1779.86,-55.3609 1832.3,-41.2879 1871.18,-31.8344"/>
<ellipse fill="none" stroke="#4cd3d8" cx="1474.79" cy="-148.757" rx="4.00001" ry="4.00001"/>
<polygon fill="#4cd3d8" stroke="#4cd3d8" points="1871.55,-31.7477 1882.32,-33.7878 1876.41,-30.5799 1881.27,-29.4122 1881.27,-29.4122 1881.27,-29.4122 1876.41,-30.5799 1880.22,-25.0367 1871.55,-31.7477 1871.55,-31.7477"/>
</g>
<!-- AlternativeTitle -->
<g id="node4" class="node"><title>AlternativeTitle</title>
<ellipse fill="none" stroke="black" cx="2454" cy="-162" rx="72.0603" ry="18"/>
<text text-anchor="middle" x="2454" y="-156.4" font-family="Times,serif" font-size="14.00">AlternativeTitle</text>
</g>
<!-- AlternativeTitle&#45;&gt;PendingItem -->
<g id="edge4" class="edge"><title>AlternativeTitle&#45;&gt;PendingItem</title>
<path fill="none" stroke="#07ea3c" d="M2401.4,-145.55C2339.15,-127.388 2232.27,-96.6048 2140,-72 2087.06,-57.8832 2026.38,-42.8264 1983.54,-32.383"/>
<ellipse fill="none" stroke="#07ea3c" cx="2405.3" cy="-146.688" rx="4.00001" ry="4.00001"/>
<polygon fill="#07ea3c" stroke="#07ea3c" points="1983.31,-32.3274 1974.66,-25.5907 1978.45,-31.1453 1973.6,-29.9631 1973.6,-29.9631 1973.6,-29.9631 1978.45,-31.1453 1972.53,-34.3356 1983.31,-32.3274 1983.31,-32.3274"/>
</g>
<!-- Badge -->
<g id="node5" class="node"><title>Badge</title>
<ellipse fill="none" stroke="black" cx="1028" cy="-378" rx="35.5596" ry="18"/>
<text text-anchor="middle" x="1028" y="-372.4" font-family="Times,serif" font-size="14.00">Badge</text>
</g>
<!-- User -->
<g id="node37" class="node"><title>User</title>
<ellipse fill="none" stroke="black" cx="1484" cy="-306" rx="28.9087" ry="18"/>
<text text-anchor="middle" x="1484" y="-300.4" font-family="Times,serif" font-size="14.00">User</text>
</g>
<!-- Badge&#45;&gt;User -->
<g id="edge7" class="edge"><title>Badge&#45;&gt;User</title>
<path fill="none" stroke="#cc394e" d="M1071.43,-370.334C1160.33,-356.686 1361.76,-325.765 1445.93,-312.845"/>
<polygon fill="#cc394e" stroke="#cc394e" points="1071.41,-370.335 1060.85,-367.405 1066.47,-371.094 1061.53,-371.853 1061.53,-371.853 1061.53,-371.853 1066.47,-371.094 1062.21,-376.301 1071.41,-370.335 1071.41,-370.335"/>
<polygon fill="#cc394e" stroke="#cc394e" points="1446.18,-312.806 1456.75,-315.736 1451.12,-312.047 1456.06,-311.288 1456.06,-311.288 1456.06,-311.288 1451.12,-312.047 1455.38,-306.841 1446.18,-312.806 1446.18,-312.806"/>
</g>
<!-- UserBadge -->
<g id="node38" class="node"><title>UserBadge</title>
<ellipse fill="none" stroke="black" cx="566" cy="-234" rx="53.4122" ry="18"/>
<text text-anchor="middle" x="566" y="-228.4" font-family="Times,serif" font-size="14.00">UserBadge</text>
</g>
<!-- Badge&#45;&gt;UserBadge -->
<g id="edge6" class="edge"><title>Badge&#45;&gt;UserBadge</title>
<path fill="none" stroke="#3e5378" d="M990.686,-365.531C907.359,-339.92 706.222,-278.099 613.846,-249.706"/>
<ellipse fill="none" stroke="#3e5378" cx="994.574" cy="-366.726" rx="4.00001" ry="4.00001"/>
<polygon fill="#3e5378" stroke="#3e5378" points="613.751,-249.677 605.515,-242.437 608.972,-248.208 604.193,-246.739 604.193,-246.739 604.193,-246.739 608.972,-248.208 602.871,-251.04 613.751,-249.677 613.751,-249.677"/>
</g>
<!-- Cast -->
<g id="node6" class="node"><title>Cast</title>
<ellipse fill="none" stroke="black" cx="1210" cy="-162" rx="28.3082" ry="18"/>
<text text-anchor="middle" x="1210" y="-156.4" font-family="Times,serif" font-size="14.00">Cast</text>
</g>
<!-- Cast&#45;&gt;PendingItem -->
<g id="edge9" class="edge"><title>Cast&#45;&gt;PendingItem</title>
<path fill="none" stroke="#878103" d="M1239.28,-146.928C1241.86,-145.874 1244.46,-144.88 1247,-144 1463.78,-68.8065 1735.9,-36.2502 1860.31,-24.5531"/>
<ellipse fill="none" stroke="#878103" cx="1235.3" cy="-148.637" rx="4.00002" ry="4.00002"/>
<polygon fill="#878103" stroke="#878103" points="1860.49,-24.5365 1870.86,-28.0964 1865.47,-24.076 1870.45,-23.6156 1870.45,-23.6156 1870.45,-23.6156 1865.47,-24.076 1870.03,-19.1347 1860.49,-24.5365 1860.49,-24.5365"/>
</g>
<!-- Company -->
<g id="node7" class="node"><title>Company</title>
<ellipse fill="none" stroke="black" cx="445" cy="-234" rx="48.3834" ry="18"/>
<text text-anchor="middle" x="445" y="-228.4" font-family="Times,serif" font-size="14.00">Company</text>
</g>
<!-- MediaTag -->
<g id="node21" class="node"><title>MediaTag</title>
<ellipse fill="none" stroke="black" cx="236" cy="-18" rx="50.0694" ry="18"/>
<text text-anchor="middle" x="236" y="-12.4" font-family="Times,serif" font-size="14.00">MediaTag</text>
</g>
<!-- Company&#45;&gt;MediaTag -->
<g id="edge12" class="edge"><title>Company&#45;&gt;MediaTag</title>
<path fill="none" stroke="#82fdc3" d="M396.242,-221.956C369.911,-213.947 338.322,-200.784 316,-180 276.046,-142.799 253.343,-81.2767 242.969,-46.0325"/>
<ellipse fill="none" stroke="#82fdc3" cx="400.388" cy="-223.162" rx="4.00001" ry="4.00001"/>
<polygon fill="#82fdc3" stroke="#82fdc3" points="242.853,-45.6194 244.472,-34.7736 241.497,-40.8068 240.14,-35.9943 240.14,-35.9943 240.14,-35.9943 241.497,-40.8068 235.809,-37.2151 242.853,-45.6194 242.853,-45.6194"/>
</g>
<!-- ProductionCompany -->
<g id="node30" class="node"><title>ProductionCompany</title>
<ellipse fill="none" stroke="black" cx="1602" cy="-162" rx="90.4557" ry="18"/>
<text text-anchor="middle" x="1602" y="-156.4" font-family="Times,serif" font-size="14.00">ProductionCompany</text>
</g>
<!-- Company&#45;&gt;ProductionCompany -->
<g id="edge11" class="edge"><title>Company&#45;&gt;ProductionCompany</title>
<path fill="none" stroke="#a3b694" d="M487.622,-219.208C492.761,-217.932 497.97,-216.815 503,-216 941.133,-145.03 1059.44,-224.931 1501,-180 1510.03,-179.081 1519.47,-177.853 1528.81,-176.476"/>
<ellipse fill="none" stroke="#a3b694" cx="483.507" cy="-220.298" rx="4.00001" ry="4.00001"/>
<polygon fill="#a3b694" stroke="#a3b694" points="1528.98,-176.449 1539.55,-179.377 1533.92,-175.689 1538.87,-174.93 1538.87,-174.93 1538.87,-174.93 1533.92,-175.689 1538.18,-170.482 1528.98,-176.449 1528.98,-176.449"/>
</g>
<!-- Country -->
<g id="node8" class="node"><title>Country</title>
<ellipse fill="none" stroke="black" cx="2084" cy="-306" rx="42.5348" ry="18"/>
<text text-anchor="middle" x="2084" y="-300.4" font-family="Times,serif" font-size="14.00">Country</text>
</g>
<!-- RevenueCountry -->
<g id="node33" class="node"><title>RevenueCountry</title>
<ellipse fill="none" stroke="black" cx="2187" cy="-162" rx="76.2133" ry="18"/>
<text text-anchor="middle" x="2187" y="-156.4" font-family="Times,serif" font-size="14.00">RevenueCountry</text>
</g>
<!-- Country&#45;&gt;RevenueCountry -->
<g id="edge14" class="edge"><title>Country&#45;&gt;RevenueCountry</title>
<path fill="none" stroke="#23747d" d="M2099.8,-281.644C2112.15,-263.56 2129.86,-237.974 2146,-216 2152.78,-206.763 2160.42,-196.786 2167.24,-188.007"/>
<ellipse fill="none" stroke="#23747d" cx="2097.44" cy="-285.117" rx="4.00002" ry="4.00002"/>
<polygon fill="#23747d" stroke="#23747d" points="2167.33,-187.9 2177.03,-182.792 2170.41,-183.96 2173.49,-180.02 2173.49,-180.02 2173.49,-180.02 2170.41,-183.96 2169.94,-177.249 2167.33,-187.9 2167.33,-187.9"/>
</g>
<!-- Crew -->
<g id="node9" class="node"><title>Crew</title>
<ellipse fill="none" stroke="black" cx="1288" cy="-162" rx="31.4312" ry="18"/>
<text text-anchor="middle" x="1288" y="-156.4" font-family="Times,serif" font-size="14.00">Crew</text>
</g>
<!-- Crew&#45;&gt;PendingItem -->
<g id="edge16" class="edge"><title>Crew&#45;&gt;PendingItem</title>
<path fill="none" stroke="#32a487" d="M1319.34,-146.861C1322.23,-145.804 1325.15,-144.829 1328,-144 1421.87,-116.688 1449.93,-130.777 1545,-108 1596.67,-95.6211 1607.52,-85.1559 1659,-72 1729.55,-53.9703 1811.84,-38.5628 1866.65,-29.0819"/>
<ellipse fill="none" stroke="#32a487" cx="1315.5" cy="-148.354" rx="4.00001" ry="4.00001"/>
<polygon fill="#32a487" stroke="#32a487" points="1866.7,-29.0735 1877.31,-31.8163 1871.62,-28.2274 1876.55,-27.3812 1876.55,-27.3812 1876.55,-27.3812 1871.62,-28.2274 1875.79,-22.9461 1866.7,-29.0735 1866.7,-29.0735"/>
</g>
<!-- Follow -->
<g id="node10" class="node"><title>Follow</title>
<ellipse fill="none" stroke="black" cx="557" cy="-18" rx="38.1069" ry="18"/>
<text text-anchor="middle" x="557" y="-12.4" font-family="Times,serif" font-size="14.00">Follow</text>
</g>
<!-- Genre -->
<g id="node11" class="node"><title>Genre</title>
<ellipse fill="none" stroke="black" cx="787" cy="-234" rx="34.4401" ry="18"/>
<text text-anchor="middle" x="787" y="-228.4" font-family="Times,serif" font-size="14.00">Genre</text>
</g>
<!-- Genre&#45;&gt;Follow -->
<g id="edge20" class="edge"><title>Genre&#45;&gt;Follow</title>
<path fill="none" stroke="#505c60" d="M747.21,-225.143C732.395,-222.239 715.435,-218.94 700,-216 656.927,-207.796 534.034,-213.715 506,-180 472.474,-139.68 510.682,-77.1193 536.758,-43.0711"/>
<ellipse fill="none" stroke="#505c60" cx="751.271" cy="-225.94" rx="4.00001" ry="4.00001"/>
<polygon fill="#505c60" stroke="#505c60" points="536.883,-42.9124 546.609,-37.8464 539.979,-38.9862 543.075,-35.06 543.075,-35.06 543.075,-35.06 539.979,-38.9862 539.542,-32.2736 536.883,-42.9124 536.883,-42.9124"/>
</g>
<!-- MovieGenre -->
<g id="node23" class="node"><title>MovieGenre</title>
<ellipse fill="none" stroke="black" cx="2033" cy="-162" rx="59.2614" ry="18"/>
<text text-anchor="middle" x="2033" y="-156.4" font-family="Times,serif" font-size="14.00">MovieGenre</text>
</g>
<!-- Genre&#45;&gt;MovieGenre -->
<g id="edge19" class="edge"><title>Genre&#45;&gt;MovieGenre</title>
<path fill="none" stroke="#958544" d="M829.358,-230.6C890.61,-227.163 1007.48,-220.733 1107,-216 1487.79,-197.888 1586.6,-233.867 1964,-180 1969.5,-179.216 1975.19,-178.182 1980.85,-177.01"/>
<ellipse fill="none" stroke="#958544" cx="825.086" cy="-230.84" rx="4" ry="4"/>
<polygon fill="#958544" stroke="#958544" points="1981.17,-176.939 1991.91,-179.171 1986.05,-175.858 1990.93,-174.777 1990.93,-174.777 1990.93,-174.777 1986.05,-175.858 1989.96,-170.383 1981.17,-176.939 1981.17,-176.939"/>
</g>
<!-- Image -->
<g id="node12" class="node"><title>Image</title>
<ellipse fill="none" stroke="black" cx="863" cy="-162" rx="35.2475" ry="18"/>
<text text-anchor="middle" x="863" y="-156.4" font-family="Times,serif" font-size="14.00">Image</text>
</g>
<!-- Image&#45;&gt;Follow -->
<g id="edge26" class="edge"><title>Image&#45;&gt;Follow</title>
<path fill="none" stroke="#8edb16" d="M830.529,-145.932C772.782,-119.134 652.673,-63.3975 592.692,-35.563"/>
<ellipse fill="none" stroke="#8edb16" cx="834.33" cy="-147.696" rx="4.00002" ry="4.00002"/>
<polygon fill="#8edb16" stroke="#8edb16" points="592.326,-35.393 585.149,-27.1017 587.79,-33.2883 583.255,-31.1836 583.255,-31.1836 583.255,-31.1836 587.79,-33.2883 581.361,-35.2655 592.326,-35.393 592.326,-35.393"/>
</g>
<!-- Like -->
<g id="node15" class="node"><title>Like</title>
<ellipse fill="none" stroke="black" cx="391" cy="-18" rx="28.5985" ry="18"/>
<text text-anchor="middle" x="391" y="-12.4" font-family="Times,serif" font-size="14.00">Like</text>
</g>
<!-- Image&#45;&gt;Like -->
<g id="edge30" class="edge"><title>Image&#45;&gt;Like</title>
<path fill="none" stroke="#abe64e" d="M821.223,-155.596C767.902,-148.052 673.197,-132.473 595,-108 531.258,-88.0508 460.591,-54.4662 421.409,-34.7543"/>
<ellipse fill="none" stroke="#abe64e" cx="825.455" cy="-156.185" rx="4.00001" ry="4.00001"/>
<polygon fill="#abe64e" stroke="#abe64e" points="421.069,-34.5815 414.185,-26.045 416.609,-32.32 412.15,-30.0584 412.15,-30.0584 412.15,-30.0584 416.609,-32.32 410.114,-34.0718 421.069,-34.5815 421.069,-34.5815"/>
</g>
<!-- ListItem -->
<g id="node17" class="node"><title>ListItem</title>
<ellipse fill="none" stroke="black" cx="762" cy="-18" rx="43.1375" ry="18"/>
<text text-anchor="middle" x="762" y="-12.4" font-family="Times,serif" font-size="14.00">ListItem</text>
</g>
<!-- Image&#45;&gt;ListItem -->
<g id="edge24" class="edge"><title>Image&#45;&gt;ListItem</title>
<path fill="none" stroke="#73f90f" d="M843.72,-139.02C835.791,-129.668 826.684,-118.511 819,-108 803.877,-87.3132 788.291,-62.7102 777.247,-44.6203"/>
<ellipse fill="none" stroke="#73f90f" cx="846.388" cy="-142.137" rx="4.00002" ry="4.00002"/>
<polygon fill="#73f90f" stroke="#73f90f" points="777.092,-44.3637 775.762,-33.4787 774.502,-40.0865 771.913,-35.8093 771.913,-35.8093 771.913,-35.8093 774.502,-40.0865 768.063,-38.1399 777.092,-44.3637 777.092,-44.3637"/>
</g>
<!-- MediaKeyword -->
<g id="node20" class="node"><title>MediaKeyword</title>
<ellipse fill="none" stroke="black" cx="924" cy="-18" rx="71.4631" ry="18"/>
<text text-anchor="middle" x="924" y="-12.4" font-family="Times,serif" font-size="14.00">MediaKeyword</text>
</g>
<!-- Image&#45;&gt;MediaKeyword -->
<g id="edge22" class="edge"><title>Image&#45;&gt;MediaKeyword</title>
<path fill="none" stroke="#5ef020" d="M883.851,-139.387C891.551,-130.325 899.686,-119.281 905,-108 914.23,-88.405 919.023,-64.2733 921.485,-46.0835"/>
<ellipse fill="none" stroke="#5ef020" cx="881.012" cy="-142.608" rx="4.00002" ry="4.00002"/>
<polygon fill="#5ef020" stroke="#5ef020" points="921.487,-46.0679 927.148,-36.6766 922.083,-41.1036 922.68,-36.1394 922.68,-36.1394 922.68,-36.1394 922.083,-41.1036 918.213,-35.6022 921.487,-46.0679 921.487,-46.0679"/>
</g>
<!-- Image&#45;&gt;MediaTag -->
<g id="edge23" class="edge"><title>Image&#45;&gt;MediaTag</title>
<path fill="none" stroke="#f4e664" d="M820.611,-157.311C752.38,-150.817 614.275,-135.368 500,-108 419.575,-88.7385 328.815,-55.5051 277.402,-35.5554"/>
<ellipse fill="none" stroke="#f4e664" cx="824.596" cy="-157.685" rx="4" ry="4"/>
<polygon fill="#f4e664" stroke="#f4e664" points="277.28,-35.5079 269.601,-27.6791 272.622,-33.6894 267.965,-31.871 267.965,-31.871 267.965,-31.871 272.622,-33.6894 266.328,-36.0629 277.28,-35.5079 277.28,-35.5079"/>
</g>
<!-- Image&#45;&gt;PendingItem -->
<g id="edge29" class="edge"><title>Image&#45;&gt;PendingItem</title>
<path fill="none" stroke="#0cd050" d="M902.224,-152.101C981.988,-134.313 1169.02,-94.1782 1328,-72 1519.58,-45.2745 1747.56,-29.4996 1859.31,-22.8036"/>
<ellipse fill="none" stroke="#0cd050" cx="898.295" cy="-152.98" rx="4.00001" ry="4.00001"/>
<polygon fill="#0cd050" stroke="#0cd050" points="1859.45,-22.7954 1869.7,-26.6951 1864.44,-22.4992 1869.44,-22.203 1869.44,-22.203 1869.44,-22.203 1864.44,-22.4992 1869.17,-17.7109 1859.45,-22.7954 1859.45,-22.7954"/>
</g>
<!-- Report -->
<g id="node32" class="node"><title>Report</title>
<ellipse fill="none" stroke="black" cx="1076" cy="-18" rx="36.9811" ry="18"/>
<text text-anchor="middle" x="1076" y="-12.4" font-family="Times,serif" font-size="14.00">Report</text>
</g>
<!-- Image&#45;&gt;Report -->
<g id="edge28" class="edge"><title>Image&#45;&gt;Report</title>
<path fill="none" stroke="#371cd5" d="M890.648,-142.568C930.911,-115.726 1005.36,-66.0948 1046.59,-38.606"/>
<ellipse fill="none" stroke="#371cd5" cx="887.139" cy="-144.907" rx="4.00002" ry="4.00002"/>
<polygon fill="#371cd5" stroke="#371cd5" points="1046.78,-38.4775 1057.6,-36.6747 1050.94,-35.7039 1055.1,-32.9304 1055.1,-32.9304 1055.1,-32.9304 1050.94,-35.7039 1052.61,-29.1862 1046.78,-38.4775 1046.78,-38.4775"/>
</g>
<!-- Video -->
<g id="node39" class="node"><title>Video</title>
<ellipse fill="none" stroke="black" cx="862" cy="-90" rx="34.0921" ry="18"/>
<text text-anchor="middle" x="862" y="-84.4" font-family="Times,serif" font-size="14.00">Video</text>
</g>
<!-- Image&#45;&gt;Video -->
<g id="edge25" class="edge"><title>Image&#45;&gt;Video</title>
<path fill="none" stroke="#a21c1b" d="M856.135,-135.861C855.756,-130.032 855.64,-123.806 855.797,-117.905"/>
<ellipse fill="none" stroke="#a21c1b" cx="856.518" cy="-140.071" rx="4" ry="4"/>
<polygon fill="#a21c1b" stroke="#a21c1b" points="855.805,-117.773 860.871,-108.047 856.092,-112.781 856.378,-107.789 856.378,-107.789 856.378,-107.789 856.092,-112.781 851.886,-107.531 855.805,-117.773 855.805,-117.773"/>
</g>
<!-- View -->
<g id="node40" class="node"><title>View</title>
<ellipse fill="none" stroke="black" cx="1190" cy="-18" rx="31.0687" ry="18"/>
<text text-anchor="middle" x="1190" y="-12.4" font-family="Times,serif" font-size="14.00">View</text>
</g>
<!-- Image&#45;&gt;View -->
<g id="edge27" class="edge"><title>Image&#45;&gt;View</title>
<path fill="none" stroke="#f8c344" d="M896.589,-146.414C959.338,-119.165 1093.67,-60.8301 1156.42,-33.5833"/>
<ellipse fill="none" stroke="#f8c344" cx="892.601" cy="-148.146" rx="4.00002" ry="4.00002"/>
<polygon fill="#f8c344" stroke="#f8c344" points="1156.68,-33.4701 1167.64,-33.6145 1161.26,-31.4785 1165.85,-29.4869 1165.85,-29.4869 1165.85,-29.4869 1161.26,-31.4785 1164.06,-25.3592 1156.68,-33.4701 1156.68,-33.4701"/>
</g>
<!-- Keyword -->
<g id="node13" class="node"><title>Keyword</title>
<ellipse fill="none" stroke="black" cx="2975" cy="-306" rx="46.4581" ry="18"/>
<text text-anchor="middle" x="2975" y="-300.4" font-family="Times,serif" font-size="14.00">Keyword</text>
</g>
<!-- MovieKeyword -->
<g id="node24" class="node"><title>MovieKeyword</title>
<ellipse fill="none" stroke="black" cx="3120" cy="-162" rx="72.2771" ry="18"/>
<text text-anchor="middle" x="3120" y="-156.4" font-family="Times,serif" font-size="14.00">MovieKeyword</text>
</g>
<!-- Keyword&#45;&gt;MovieKeyword -->
<g id="edge32" class="edge"><title>Keyword&#45;&gt;MovieKeyword</title>
<path fill="none" stroke="#a03c14" d="M2997.23,-283.234C3023.85,-257.163 3068.28,-213.648 3095.76,-186.734"/>
<ellipse fill="none" stroke="#a03c14" cx="2994.21" cy="-286.188" rx="4.00002" ry="4.00002"/>
<polygon fill="#a03c14" stroke="#a03c14" points="3095.89,-186.609 3106.19,-182.827 3099.46,-183.11 3103.04,-179.612 3103.04,-179.612 3103.04,-179.612 3099.46,-183.11 3099.89,-176.397 3095.89,-186.609 3095.89,-186.609"/>
</g>
<!-- Language -->
<g id="node14" class="node"><title>Language</title>
<ellipse fill="none" stroke="black" cx="2490" cy="-234" rx="49.1619" ry="18"/>
<text text-anchor="middle" x="2490" y="-228.4" font-family="Times,serif" font-size="14.00">Language</text>
</g>
<!-- Language&#45;&gt;AlternativeTitle -->
<g id="edge34" class="edge"><title>Language&#45;&gt;AlternativeTitle</title>
<path fill="none" stroke="#02174f" d="M2477.57,-208.827C2474.32,-202.515 2470.81,-195.681 2467.51,-189.266"/>
<ellipse fill="none" stroke="#02174f" cx="2479.46" cy="-212.498" rx="4.00002" ry="4.00002"/>
<polygon fill="#02174f" stroke="#02174f" points="2467.46,-189.168 2466.89,-178.217 2465.17,-184.722 2462.88,-180.275 2462.88,-180.275 2462.88,-180.275 2465.17,-184.722 2458.88,-182.333 2467.46,-189.168 2467.46,-189.168"/>
</g>
<!-- MovieLanguage -->
<g id="node25" class="node"><title>MovieLanguage</title>
<ellipse fill="none" stroke="black" cx="2955" cy="-162" rx="73.9817" ry="18"/>
<text text-anchor="middle" x="2955" y="-156.4" font-family="Times,serif" font-size="14.00">MovieLanguage</text>
</g>
<!-- Language&#45;&gt;MovieLanguage -->
<g id="edge35" class="edge"><title>Language&#45;&gt;MovieLanguage</title>
<path fill="none" stroke="#266e2c" d="M2543.57,-225.999C2633.25,-214.209 2810.01,-190.638 2872,-180 2878.28,-178.923 2884.81,-177.723 2891.33,-176.474"/>
<ellipse fill="none" stroke="#266e2c" cx="2539.4" cy="-226.547" rx="4.00001" ry="4.00001"/>
<polygon fill="#266e2c" stroke="#266e2c" points="2891.7,-176.4 2902.38,-178.896 2896.61,-175.44 2901.52,-174.48 2901.52,-174.48 2901.52,-174.48 2896.61,-175.44 2900.65,-170.063 2891.7,-176.4 2891.7,-176.4"/>
</g>
<!-- List -->
<g id="node16" class="node"><title>List</title>
<ellipse fill="none" stroke="black" cx="631" cy="-90" rx="27" ry="18"/>
<text text-anchor="middle" x="631" y="-84.4" font-family="Times,serif" font-size="14.00">List</text>
</g>
<!-- List&#45;&gt;Follow -->
<g id="edge39" class="edge"><title>List&#45;&gt;Follow</title>
<path fill="none" stroke="#1cae36" d="M610.185,-69.31C600.953,-60.5773 590.047,-50.2608 580.522,-41.2502"/>
<ellipse fill="none" stroke="#1cae36" cx="613.119" cy="-72.0856" rx="4.00002" ry="4.00002"/>
<polygon fill="#1cae36" stroke="#1cae36" points="580.501,-41.2311 576.329,-31.09 576.869,-37.7951 573.237,-34.3591 573.237,-34.3591 573.237,-34.3591 576.869,-37.7951 570.144,-37.6282 580.501,-41.2311 580.501,-41.2311"/>
</g>
<!-- List&#45;&gt;ListItem -->
<g id="edge38" class="edge"><title>List&#45;&gt;ListItem</title>
<path fill="none" stroke="#a80a2f" d="M658.555,-74.276C678.615,-63.557 705.923,-48.965 727.444,-37.4651"/>
<ellipse fill="none" stroke="#a80a2f" cx="654.997" cy="-76.1773" rx="4.00002" ry="4.00002"/>
<polygon fill="#a80a2f" stroke="#a80a2f" points="727.455,-37.4591 738.396,-36.7151 731.865,-35.1027 736.275,-32.7462 736.275,-32.7462 736.275,-32.7462 731.865,-35.1027 734.154,-28.7773 727.455,-37.4591 727.455,-37.4591"/>
</g>
<!-- List&#45;&gt;PendingItem -->
<g id="edge40" class="edge"><title>List&#45;&gt;PendingItem</title>
<path fill="none" stroke="#bda02d" d="M665.553,-85.4326C703.238,-81.6454 765.352,-75.7058 819,-72 1211.64,-44.8779 1683.44,-27.3046 1858.34,-21.3016"/>
<ellipse fill="none" stroke="#bda02d" cx="661.416" cy="-85.8508" rx="4" ry="4"/>
<polygon fill="#bda02d" stroke="#bda02d" points="1858.45,-21.2983 1868.59,-25.4541 1863.44,-21.1275 1868.44,-20.9567 1868.44,-20.9567 1868.44,-20.9567 1863.44,-21.1275 1868.29,-16.4593 1858.45,-21.2983 1858.45,-21.2983"/>
</g>
<!-- ListKeyword -->
<g id="node18" class="node"><title>ListKeyword</title>
<ellipse fill="none" stroke="black" cx="1220" cy="-378" rx="61.4923" ry="18"/>
<text text-anchor="middle" x="1220" y="-372.4" font-family="Times,serif" font-size="14.00">ListKeyword</text>
</g>
<!-- ListTag -->
<g id="node19" class="node"><title>ListTag</title>
<ellipse fill="none" stroke="black" cx="1340" cy="-378" rx="40.0988" ry="18"/>
<text text-anchor="middle" x="1340" y="-372.4" font-family="Times,serif" font-size="14.00">ListTag</text>
</g>
<!-- Movie -->
<g id="node22" class="node"><title>Movie</title>
<ellipse fill="none" stroke="black" cx="1797" cy="-234" rx="36.3747" ry="18"/>
<text text-anchor="middle" x="1797" y="-228.4" font-family="Times,serif" font-size="14.00">Movie</text>
</g>
<!-- Movie&#45;&gt;AlternativeTitle -->
<g id="edge47" class="edge"><title>Movie&#45;&gt;AlternativeTitle</title>
<path fill="none" stroke="#ade14d" d="M1840.98,-230.685C1937.64,-225.219 2175.67,-209.685 2373,-180 2379.34,-179.046 2385.93,-177.908 2392.49,-176.679"/>
<ellipse fill="none" stroke="#ade14d" cx="1836.89" cy="-230.914" rx="4" ry="4"/>
<polygon fill="#ade14d" stroke="#ade14d" points="2392.93,-176.596 2403.6,-179.104 2397.83,-175.641 2402.74,-174.687 2402.74,-174.687 2402.74,-174.687 2397.83,-175.641 2401.88,-170.27 2392.93,-176.596 2392.93,-176.596"/>
</g>
<!-- Movie&#45;&gt;Cast -->
<g id="edge49" class="edge"><title>Movie&#45;&gt;Cast</title>
<path fill="none" stroke="#2b4fd2" d="M1752.68,-233.689C1658.04,-234.09 1429.96,-229.334 1247,-180 1244.84,-179.417 1242.64,-178.718 1240.46,-177.94"/>
<ellipse fill="none" stroke="#2b4fd2" cx="1756.87" cy="-233.664" rx="4" ry="4"/>
<polygon fill="#2b4fd2" stroke="#2b4fd2" points="1240.34,-177.892 1232.75,-169.973 1235.7,-176.018 1231.07,-174.145 1231.07,-174.145 1231.07,-174.145 1235.7,-176.018 1229.38,-178.317 1240.34,-177.892 1240.34,-177.892"/>
</g>
<!-- Movie&#45;&gt;Crew -->
<g id="edge48" class="edge"><title>Movie&#45;&gt;Crew</title>
<path fill="none" stroke="#b1b604" d="M1752.7,-232.235C1668.56,-229.858 1480.43,-220.092 1328,-180 1325.66,-179.385 1323.28,-178.657 1320.9,-177.854"/>
<ellipse fill="none" stroke="#b1b604" cx="1756.76" cy="-232.343" rx="4" ry="4"/>
<polygon fill="#b1b604" stroke="#b1b604" points="1320.65,-177.758 1312.88,-170.02 1315.97,-175.995 1311.29,-174.231 1311.29,-174.231 1311.29,-174.231 1315.97,-175.995 1309.7,-178.442 1320.65,-177.758 1320.65,-177.758"/>
</g>
<!-- Movie&#45;&gt;Follow -->
<g id="edge61" class="edge"><title>Movie&#45;&gt;Follow</title>
<path fill="none" stroke="#8eaaf6" d="M1752.93,-232.114C1587.27,-228.549 1002.04,-213.794 819,-180 716.166,-161.014 672.284,-178.444 595,-108 577.213,-91.7868 567.433,-65.8498 562.269,-46.1486"/>
<ellipse fill="none" stroke="#8eaaf6" cx="1756.96" cy="-232.199" rx="4" ry="4"/>
<polygon fill="#8eaaf6" stroke="#8eaaf6" points="562.223,-45.9527 564.291,-35.1836 561.068,-41.0879 559.913,-36.2232 559.913,-36.2232 559.913,-36.2232 561.068,-41.0879 555.534,-37.2628 562.223,-45.9527 562.223,-45.9527"/>
</g>
<!-- Movie&#45;&gt;Image -->
<g id="edge59" class="edge"><title>Movie&#45;&gt;Image</title>
<path fill="none" stroke="#a63e18" d="M1753.32,-229.726C1596.96,-218.007 1065.99,-178.213 907.819,-166.359"/>
<ellipse fill="none" stroke="#a63e18" cx="1757.54" cy="-230.042" rx="4" ry="4"/>
<polygon fill="#a63e18" stroke="#a63e18" points="907.487,-166.334 897.851,-161.099 902.501,-165.961 897.515,-165.587 897.515,-165.587 897.515,-165.587 902.501,-165.961 897.179,-170.074 907.487,-166.334 907.487,-166.334"/>
</g>
<!-- Movie&#45;&gt;ListItem -->
<g id="edge58" class="edge"><title>Movie&#45;&gt;ListItem</title>
<path fill="none" stroke="#ed04bb" d="M1787.23,-208.917C1777.36,-187.97 1760,-158.732 1735,-144 1667.83,-104.413 1463.43,-117.125 1386,-108 1144.23,-79.5073 1082.96,-77.0309 843,-36 832.048,-34.1273 820.321,-31.8348 809.288,-29.547"/>
<ellipse fill="none" stroke="#ed04bb" cx="1788.88" cy="-212.571" rx="4.00002" ry="4.00002"/>
<polygon fill="#ed04bb" stroke="#ed04bb" points="809.177,-29.5237 800.321,-23.0564 804.284,-28.4916 799.392,-27.4595 799.392,-27.4595 799.392,-27.4595 804.284,-28.4916 798.463,-31.8626 809.177,-29.5237 809.177,-29.5237"/>
</g>
<!-- Movie&#45;&gt;MovieGenre -->
<g id="edge50" class="edge"><title>Movie&#45;&gt;MovieGenre</title>
<path fill="none" stroke="#63cad5" d="M1835.08,-221.705C1875.08,-209.84 1938.2,-191.117 1982.38,-178.015"/>
<ellipse fill="none" stroke="#63cad5" cx="1831.2" cy="-222.855" rx="4.00001" ry="4.00001"/>
<polygon fill="#63cad5" stroke="#63cad5" points="1982.47,-177.988 1993.34,-179.458 1987.26,-176.566 1992.06,-175.144 1992.06,-175.144 1992.06,-175.144 1987.26,-176.566 1990.78,-170.83 1982.47,-177.988 1982.47,-177.988"/>
</g>
<!-- Movie&#45;&gt;MovieKeyword -->
<g id="edge51" class="edge"><title>Movie&#45;&gt;MovieKeyword</title>
<path fill="none" stroke="#5fa7c5" d="M1841.18,-232.072C2033.56,-227.886 2799.19,-209.656 3038,-180 3044.79,-179.157 3051.85,-178.051 3058.85,-176.805"/>
<ellipse fill="none" stroke="#5fa7c5" cx="1836.98" cy="-232.163" rx="4" ry="4"/>
<polygon fill="#5fa7c5" stroke="#5fa7c5" points="3059.21,-176.738 3069.86,-179.319 3064.12,-175.817 3069.03,-174.896 3069.03,-174.896 3069.03,-174.896 3064.12,-175.817 3068.21,-170.473 3059.21,-176.738 3059.21,-176.738"/>
</g>
<!-- Movie&#45;&gt;MovieLanguage -->
<g id="edge52" class="edge"><title>Movie&#45;&gt;MovieLanguage</title>
<path fill="none" stroke="#a4f0e4" d="M1841.16,-231.724C2016.98,-226.505 2667.49,-205.832 2872,-180 2878.77,-179.145 2885.8,-178.043 2892.79,-176.81"/>
<ellipse fill="none" stroke="#a4f0e4" cx="1836.91" cy="-231.85" rx="4" ry="4"/>
<polygon fill="#a4f0e4" stroke="#a4f0e4" points="2893.12,-176.748 2903.78,-179.349 2898.04,-175.837 2902.96,-174.925 2902.96,-174.925 2902.96,-174.925 2898.04,-175.837 2902.14,-170.5 2893.12,-176.748 2893.12,-176.748"/>
</g>
<!-- MovieMetadata -->
<g id="node26" class="node"><title>MovieMetadata</title>
<ellipse fill="none" stroke="black" cx="2617" cy="-162" rx="72.2629" ry="18"/>
<text text-anchor="middle" x="2617" y="-156.4" font-family="Times,serif" font-size="14.00">MovieMetadata</text>
</g>
<!-- Movie&#45;&gt;MovieMetadata -->
<g id="edge53" class="edge"><title>Movie&#45;&gt;MovieMetadata</title>
<path fill="none" stroke="#35b380" d="M1841.54,-231.86C1956.72,-228.468 2273.71,-216.303 2535,-180 2541.68,-179.072 2548.62,-177.923 2555.52,-176.663"/>
<ellipse fill="none" stroke="#35b380" cx="1837.27" cy="-231.984" rx="4" ry="4"/>
<polygon fill="#35b380" stroke="#35b380" points="2555.74,-176.622 2566.41,-179.171 2560.65,-175.686 2565.57,-174.751 2565.57,-174.751 2565.57,-174.751 2560.65,-175.686 2564.72,-170.33 2555.74,-176.622 2555.74,-176.622"/>
</g>
<!-- Movie&#45;&gt;PendingItem -->
<g id="edge64" class="edge"><title>Movie&#45;&gt;PendingItem</title>
<path fill="none" stroke="#63635d" d="M1820.2,-212.484C1829.86,-203.187 1840.73,-191.675 1849,-180 1879.98,-136.244 1905.02,-78.5126 1918.1,-45.4011"/>
<ellipse fill="none" stroke="#63635d" cx="1817.29" cy="-215.226" rx="4.00002" ry="4.00002"/>
<polygon fill="#63635d" stroke="#63635d" points="1918.15,-45.2796 1925.96,-37.5878 1919.96,-40.6189 1921.77,-35.9582 1921.77,-35.9582 1921.77,-35.9582 1919.96,-40.6189 1917.58,-34.3287 1918.15,-45.2796 1918.15,-45.2796"/>
</g>
<!-- Movie&#45;&gt;ProductionCompany -->
<g id="edge56" class="edge"><title>Movie&#45;&gt;ProductionCompany</title>
<path fill="none" stroke="#edbc55" d="M1761.02,-220.083C1730.92,-209.279 1687.6,-193.729 1653.78,-181.586"/>
<ellipse fill="none" stroke="#edbc55" cx="1764.88" cy="-221.47" rx="4.00001" ry="4.00001"/>
<polygon fill="#edbc55" stroke="#edbc55" points="1653.47,-181.477 1645.58,-173.863 1648.76,-179.787 1644.06,-178.098 1644.06,-178.098 1644.06,-178.098 1648.76,-179.787 1642.54,-182.333 1653.47,-181.477 1653.47,-181.477"/>
</g>
<!-- Release -->
<g id="node31" class="node"><title>Release</title>
<ellipse fill="none" stroke="black" cx="2323" cy="-162" rx="41.0954" ry="18"/>
<text text-anchor="middle" x="2323" y="-156.4" font-family="Times,serif" font-size="14.00">Release</text>
</g>
<!-- Movie&#45;&gt;Release -->
<g id="edge55" class="edge"><title>Movie&#45;&gt;Release</title>
<path fill="none" stroke="#5c32ab" d="M1840.95,-231.188C1925.38,-227.028 2115.73,-214.361 2272,-180 2275.63,-179.201 2279.37,-178.24 2283.09,-177.185"/>
<ellipse fill="none" stroke="#5c32ab" cx="1836.87" cy="-231.384" rx="4" ry="4"/>
<polygon fill="#5c32ab" stroke="#5c32ab" points="2283.25,-177.135 2294.13,-178.528 2288.04,-175.679 2292.82,-174.223 2292.82,-174.223 2292.82,-174.223 2288.04,-175.679 2291.51,-169.918 2283.25,-177.135 2283.25,-177.135"/>
</g>
<!-- Movie&#45;&gt;Report -->
<g id="edge63" class="edge"><title>Movie&#45;&gt;Report</title>
<path fill="none" stroke="#ca0821" d="M1797.15,-207.673C1795.84,-187.491 1790.59,-160.043 1773,-144 1747.05,-120.326 1184.44,-42.935 1150,-36 1139.82,-33.9506 1128.91,-31.5534 1118.67,-29.2162"/>
<ellipse fill="none" stroke="#ca0821" cx="1797.33" cy="-211.827" rx="4" ry="4"/>
<polygon fill="#ca0821" stroke="#ca0821" points="1118.45,-29.1658 1109.72,-22.5298 1113.57,-28.04 1108.7,-26.9143 1108.7,-26.9143 1108.7,-26.9143 1113.57,-28.04 1107.69,-31.2987 1118.45,-29.1658 1118.45,-29.1658"/>
</g>
<!-- Movie&#45;&gt;RevenueCountry -->
<g id="edge54" class="edge"><title>Movie&#45;&gt;RevenueCountry</title>
<path fill="none" stroke="#0e445e" d="M1838.71,-226.035C1897.34,-216.174 2007.43,-197.402 2101,-180 2107.53,-178.785 2114.34,-177.489 2121.14,-176.176"/>
<ellipse fill="none" stroke="#0e445e" cx="1834.73" cy="-226.703" rx="4.00001" ry="4.00001"/>
<polygon fill="#0e445e" stroke="#0e445e" points="2121.24,-176.157 2131.92,-178.665 2126.15,-175.202 2131.06,-174.248 2131.06,-174.248 2131.06,-174.248 2126.15,-175.202 2130.2,-169.831 2121.24,-176.157 2121.24,-176.157"/>
</g>
<!-- Tag -->
<g id="node36" class="node"><title>Tag</title>
<ellipse fill="none" stroke="black" cx="1928" cy="-162" rx="27" ry="18"/>
<text text-anchor="middle" x="1928" y="-156.4" font-family="Times,serif" font-size="14.00">Tag</text>
</g>
<!-- Movie&#45;&gt;Tag -->
<g id="edge57" class="edge"><title>Movie&#45;&gt;Tag</title>
<path fill="none" stroke="#45d7aa" d="M1828.03,-216.42C1849.32,-205.045 1877.4,-190.039 1898.38,-178.828"/>
<ellipse fill="none" stroke="#45d7aa" cx="1824.25" cy="-218.438" rx="4.00002" ry="4.00002"/>
<polygon fill="#45d7aa" stroke="#45d7aa" points="1898.65,-178.684 1909.59,-177.94 1903.06,-176.328 1907.47,-173.971 1907.47,-173.971 1907.47,-173.971 1903.06,-176.328 1905.35,-170.002 1898.65,-178.684 1898.65,-178.684"/>
</g>
<!-- Movie&#45;&gt;Video -->
<g id="edge60" class="edge"><title>Movie&#45;&gt;Video</title>
<path fill="none" stroke="#d0e6f9" d="M1775.77,-211.849C1750.34,-186.748 1710.02,-147.789 1701,-144 1546.55,-79.1218 1114.29,-128.298 948,-108 933.047,-106.175 916.801,-103.22 902.498,-100.281"/>
<ellipse fill="none" stroke="#d0e6f9" cx="1778.73" cy="-214.781" rx="4.00002" ry="4.00002"/>
<polygon fill="#d0e6f9" stroke="#d0e6f9" points="902.255,-100.23 893.403,-93.7585 897.363,-99.1957 892.472,-98.1611 892.472,-98.1611 892.472,-98.1611 897.363,-99.1957 891.541,-102.564 902.255,-100.23 902.255,-100.23"/>
</g>
<!-- Movie&#45;&gt;View -->
<g id="edge62" class="edge"><title>Movie&#45;&gt;View</title>
<path fill="none" stroke="#1be6cf" d="M1809.84,-209.227C1818.49,-189.618 1825.87,-162.163 1811,-144 1736.97,-53.5796 1357.87,-27.1398 1231.24,-20.7674"/>
<ellipse fill="none" stroke="#1be6cf" cx="1808.09" cy="-212.963" rx="4.00002" ry="4.00002"/>
<polygon fill="#1be6cf" stroke="#1be6cf" points="1231.16,-20.7636 1221.39,-15.7819 1226.17,-20.5201 1221.17,-20.2766 1221.17,-20.2766 1221.17,-20.2766 1226.17,-20.5201 1220.95,-24.7712 1231.16,-20.7636 1231.16,-20.7636"/>
</g>
<!-- MovieGenre&#45;&gt;PendingItem -->
<g id="edge66" class="edge"><title>MovieGenre&#45;&gt;PendingItem</title>
<path fill="none" stroke="#769166" d="M2015.74,-137.654C1996.7,-111.911 1966.19,-70.6415 1946.62,-44.1854"/>
<ellipse fill="none" stroke="#769166" cx="2018.16" cy="-140.937" rx="4.00002" ry="4.00002"/>
<polygon fill="#769166" stroke="#769166" points="1946.39,-43.8656 1944.06,-33.1495 1943.41,-39.8453 1940.44,-35.825 1940.44,-35.825 1940.44,-35.825 1943.41,-39.8453 1936.82,-38.5005 1946.39,-43.8656 1946.39,-43.8656"/>
</g>
<!-- MovieKeyword&#45;&gt;PendingItem -->
<g id="edge68" class="edge"><title>MovieKeyword&#45;&gt;PendingItem</title>
<path fill="none" stroke="#b651fa" d="M3058.92,-147.957C3051.88,-146.565 3044.79,-145.216 3038,-144 2827.39,-106.269 2774.51,-96.926 2562,-72 2356.75,-47.9245 2112.85,-30.73 1996.45,-23.2188"/>
<ellipse fill="none" stroke="#b651fa" cx="3063.23" cy="-148.818" rx="4.00001" ry="4.00001"/>
<polygon fill="#b651fa" stroke="#b651fa" points="1996.24,-23.2055 1986.55,-18.0744 1991.25,-22.8854 1986.26,-22.5652 1986.26,-22.5652 1986.26,-22.5652 1991.25,-22.8854 1985.97,-27.056 1996.24,-23.2055 1996.24,-23.2055"/>
</g>
<!-- MovieLanguage&#45;&gt;PendingItem -->
<g id="edge70" class="edge"><title>MovieLanguage&#45;&gt;PendingItem</title>
<path fill="none" stroke="#d5696e" d="M2892.83,-147.98C2885.82,-146.595 2878.76,-145.241 2872,-144 2675.81,-107.98 2626.7,-98.5027 2429,-72 2274.05,-51.2292 2091.25,-33.6264 1995.02,-24.893"/>
<ellipse fill="none" stroke="#d5696e" cx="2897.12" cy="-148.833" rx="4.00001" ry="4.00001"/>
<polygon fill="#d5696e" stroke="#d5696e" points="1994.81,-24.8742 1985.25,-19.4922 1989.83,-24.4241 1984.85,-23.9739 1984.85,-23.9739 1984.85,-23.9739 1989.83,-24.4241 1984.44,-28.4557 1994.81,-24.8742 1994.81,-24.8742"/>
</g>
<!-- MovieMetadata&#45;&gt;PendingItem -->
<g id="edge72" class="edge"><title>MovieMetadata&#45;&gt;PendingItem</title>
<path fill="none" stroke="#372535" d="M2558.35,-147.116C2480.85,-128.949 2340.02,-96.5408 2219,-72 2139.79,-55.9364 2047.98,-39.591 1989,-29.3824"/>
<ellipse fill="none" stroke="#372535" cx="2562.67" cy="-148.13" rx="4.00001" ry="4.00001"/>
<polygon fill="#372535" stroke="#372535" points="1988.96,-29.3752 1979.87,-23.2392 1984.04,-28.5244 1979.11,-27.6735 1979.11,-27.6735 1979.11,-27.6735 1984.04,-28.5244 1978.34,-32.1079 1988.96,-29.3752 1988.96,-29.3752"/>
</g>
<!-- Person -->
<g id="node28" class="node"><title>Person</title>
<ellipse fill="none" stroke="black" cx="1153" cy="-234" rx="36.9881" ry="18"/>
<text text-anchor="middle" x="1153" y="-228.4" font-family="Times,serif" font-size="14.00">Person</text>
</g>
<!-- Person&#45;&gt;AlternativeName -->
<g id="edge75" class="edge"><title>Person&#45;&gt;AlternativeName</title>
<path fill="none" stroke="#59627b" d="M1192.6,-222.42C1236.09,-210.801 1306.37,-192.023 1356.28,-178.689"/>
<ellipse fill="none" stroke="#59627b" cx="1188.73" cy="-223.454" rx="4.00001" ry="4.00001"/>
<polygon fill="#59627b" stroke="#59627b" points="1356.32,-178.679 1367.14,-180.445 1361.15,-177.389 1365.98,-176.098 1365.98,-176.098 1365.98,-176.098 1361.15,-177.389 1364.81,-171.75 1356.32,-178.679 1356.32,-178.679"/>
</g>
<!-- Person&#45;&gt;Cast -->
<g id="edge77" class="edge"><title>Person&#45;&gt;Cast</title>
<path fill="none" stroke="#988518" d="M1171.07,-210.808C1177.46,-202.961 1184.66,-194.118 1191.12,-186.19"/>
<ellipse fill="none" stroke="#988518" cx="1168.46" cy="-214.014" rx="4.00002" ry="4.00002"/>
<polygon fill="#988518" stroke="#988518" points="1191.19,-186.095 1201,-181.182 1194.35,-182.217 1197.51,-178.34 1197.51,-178.34 1197.51,-178.34 1194.35,-182.217 1194.02,-175.499 1191.19,-186.095 1191.19,-186.095"/>
</g>
<!-- Person&#45;&gt;Crew -->
<g id="edge76" class="edge"><title>Person&#45;&gt;Crew</title>
<path fill="none" stroke="#53f206" d="M1184.84,-216.493C1206.45,-205.286 1234.91,-190.529 1256.46,-179.354"/>
<ellipse fill="none" stroke="#53f206" cx="1181" cy="-218.482" rx="4.00002" ry="4.00002"/>
<polygon fill="#53f206" stroke="#53f206" points="1256.65,-179.255 1267.6,-178.647 1261.09,-176.953 1265.53,-174.652 1265.53,-174.652 1265.53,-174.652 1261.09,-176.953 1263.46,-170.657 1256.65,-179.255 1256.65,-179.255"/>
</g>
<!-- Person&#45;&gt;Follow -->
<g id="edge83" class="edge"><title>Person&#45;&gt;Follow</title>
<path fill="none" stroke="#d27556" d="M1107.9,-230.208C976.523,-221.894 602.135,-196.829 582,-180 543.48,-147.805 546.355,-82.867 551.742,-46.0608"/>
<ellipse fill="none" stroke="#d27556" cx="1112.2" cy="-230.48" rx="4" ry="4"/>
<polygon fill="#d27556" stroke="#d27556" points="551.766,-45.9121 557.815,-36.7653 552.569,-40.9771 553.373,-36.0421 553.373,-36.0421 553.373,-36.0421 552.569,-40.9771 548.931,-35.3188 551.766,-45.9121 551.766,-45.9121"/>
</g>
<!-- Person&#45;&gt;Image -->
<g id="edge81" class="edge"><title>Person&#45;&gt;Image</title>
<path fill="none" stroke="#e1be94" d="M1112.66,-223.264C1057.65,-209.985 959.615,-186.321 904.171,-172.938"/>
<ellipse fill="none" stroke="#e1be94" cx="1116.69" cy="-224.235" rx="4.00001" ry="4.00001"/>
<polygon fill="#e1be94" stroke="#e1be94" points="904.055,-172.91 895.39,-166.189 899.195,-171.737 894.334,-170.563 894.334,-170.563 894.334,-170.563 899.195,-171.737 893.278,-174.938 904.055,-172.91 904.055,-172.91"/>
</g>
<!-- Person&#45;&gt;ListItem -->
<g id="edge80" class="edge"><title>Person&#45;&gt;ListItem</title>
<path fill="none" stroke="#e796f4" d="M1108.01,-231.303C1027.4,-227.4 862.688,-215.231 819,-180 778.315,-147.191 766.634,-83.2351 763.304,-46.578"/>
<ellipse fill="none" stroke="#e796f4" cx="1112.02" cy="-231.49" rx="4" ry="4"/>
<polygon fill="#e796f4" stroke="#e796f4" points="763.269,-46.1143 767.003,-35.8038 762.892,-41.1285 762.516,-36.1427 762.516,-36.1427 762.516,-36.1427 762.892,-41.1285 758.028,-36.4817 763.269,-46.1143 763.269,-46.1143"/>
</g>
<!-- Person&#45;&gt;PendingItem -->
<g id="edge86" class="edge"><title>Person&#45;&gt;PendingItem</title>
<path fill="none" stroke="#147484" d="M1152.45,-207.585C1153.36,-188.002 1157.71,-161.413 1173,-144 1180.69,-135.245 1358.63,-74.5719 1370,-72 1542.4,-32.9869 1751.07,-22.6538 1857.75,-19.9425"/>
<ellipse fill="none" stroke="#147484" cx="1152.34" cy="-211.768" rx="4" ry="4"/>
<polygon fill="#147484" stroke="#147484" points="1857.75,-19.9425 1867.86,-24.202 1862.75,-19.8229 1867.75,-19.7032 1867.75,-19.7032 1867.75,-19.7032 1862.75,-19.8229 1867.64,-15.2045 1857.75,-19.9425 1857.75,-19.9425"/>
</g>
<!-- PersonSocialApp -->
<g id="node29" class="node"><title>PersonSocialApp</title>
<ellipse fill="none" stroke="black" cx="2785" cy="-162" rx="78.1393" ry="18"/>
<text text-anchor="middle" x="2785" y="-156.4" font-family="Times,serif" font-size="14.00">PersonSocialApp</text>
</g>
<!-- Person&#45;&gt;PersonSocialApp -->
<g id="edge78" class="edge"><title>Person&#45;&gt;PersonSocialApp</title>
<path fill="none" stroke="#1a65f7" d="M1198.31,-231.649C1445.37,-224.255 2621.66,-188.712 2698,-180 2705.34,-179.163 2712.98,-178.042 2720.55,-176.774"/>
<ellipse fill="none" stroke="#1a65f7" cx="1194.25" cy="-231.77" rx="4" ry="4"/>
<polygon fill="#1a65f7" stroke="#1a65f7" points="2720.59,-176.767 2731.22,-179.465 2725.52,-175.9 2730.44,-175.033 2730.44,-175.033 2730.44,-175.033 2725.52,-175.9 2729.66,-170.601 2720.59,-176.767 2720.59,-176.767"/>
</g>
<!-- Person&#45;&gt;Report -->
<g id="edge85" class="edge"><title>Person&#45;&gt;Report</title>
<path fill="none" stroke="#925832" d="M1139.62,-209.076C1135.36,-200.22 1131.19,-189.917 1129,-180 1118.65,-133.126 1146.36,-116.351 1128,-72 1122.91,-59.7178 1113.49,-48.7305 1104.04,-39.9878"/>
<ellipse fill="none" stroke="#925832" cx="1141.54" cy="-212.869" rx="4.00002" ry="4.00002"/>
<polygon fill="#925832" stroke="#925832" points="1103.76,-39.7408 1099.15,-29.7916 1099.98,-36.4668 1096.2,-33.1928 1096.2,-33.1928 1096.2,-33.1928 1099.98,-36.4668 1093.25,-36.5939 1103.76,-39.7408 1103.76,-39.7408"/>
</g>
<!-- Person&#45;&gt;Tag -->
<g id="edge79" class="edge"><title>Person&#45;&gt;Tag</title>
<path fill="none" stroke="#8ac696" d="M1197.54,-228.977C1336.97,-216.384 1763.35,-177.872 1891.32,-166.313"/>
<ellipse fill="none" stroke="#8ac696" cx="1193.32" cy="-229.358" rx="4" ry="4"/>
<polygon fill="#8ac696" stroke="#8ac696" points="1891.43,-166.303 1901.79,-169.886 1896.41,-165.854 1901.39,-165.404 1901.39,-165.404 1901.39,-165.404 1896.41,-165.854 1900.98,-160.922 1891.43,-166.303 1891.43,-166.303"/>
</g>
<!-- Person&#45;&gt;Video -->
<g id="edge82" class="edge"><title>Person&#45;&gt;Video</title>
<path fill="none" stroke="#ba2822" d="M1120.49,-217.135C1064.79,-189.958 951.712,-134.777 895.409,-107.303"/>
<ellipse fill="none" stroke="#ba2822" cx="1124.09" cy="-218.893" rx="4.00002" ry="4.00002"/>
<polygon fill="#ba2822" stroke="#ba2822" points="895.216,-107.209 888.203,-98.779 890.723,-105.016 886.229,-102.823 886.229,-102.823 886.229,-102.823 890.723,-105.016 884.256,-106.867 895.216,-107.209 895.216,-107.209"/>
</g>
<!-- Person&#45;&gt;View -->
<g id="edge84" class="edge"><title>Person&#45;&gt;View</title>
<path fill="none" stroke="#cda57f" d="M1140.83,-208.784C1133.05,-189.54 1126.68,-162.822 1140,-144 1167.77,-104.755 1214.23,-147.245 1242,-108 1257.95,-85.4603 1235.78,-57.7615 1215.65,-39.3095"/>
<ellipse fill="none" stroke="#cda57f" cx="1142.49" cy="-212.602" rx="4.00002" ry="4.00002"/>
<polygon fill="#cda57f" stroke="#cda57f" points="1215.65,-39.305 1211.09,-29.3336 1211.89,-36.0127 1208.12,-32.7204 1208.12,-32.7204 1208.12,-32.7204 1211.89,-36.0127 1205.16,-36.1072 1215.65,-39.305 1215.65,-39.305"/>
</g>
<!-- PersonSocialApp&#45;&gt;PendingItem -->
<g id="edge88" class="edge"><title>PersonSocialApp&#45;&gt;PendingItem</title>
<path fill="none" stroke="#b73b0d" d="M2719.58,-148.168C2712.3,-146.754 2704.99,-145.342 2698,-144 2528.33,-111.434 2486.53,-99.7001 2316,-72 2202.65,-53.5874 2069.96,-36.3983 1992.8,-26.8345"/>
<ellipse fill="none" stroke="#b73b0d" cx="2723.52" cy="-148.935" rx="4.00001" ry="4.00001"/>
<polygon fill="#b73b0d" stroke="#b73b0d" points="1992.67,-26.8191 1983.3,-21.127 1987.71,-26.206 1982.75,-25.593 1982.75,-25.593 1982.75,-25.593 1987.71,-26.206 1982.2,-30.0591 1992.67,-26.8191 1992.67,-26.8191"/>
</g>
<!-- ProductionCompany&#45;&gt;PendingItem -->
<g id="edge90" class="edge"><title>ProductionCompany&#45;&gt;PendingItem</title>
<path fill="none" stroke="#1c9a57" d="M1649.49,-142.778C1674.98,-132.822 1706.85,-120.089 1735,-108 1788.45,-85.047 1849.25,-56.6143 1888.09,-38.154"/>
<ellipse fill="none" stroke="#1c9a57" cx="1645.53" cy="-144.322" rx="4.00001" ry="4.00001"/>
<polygon fill="#1c9a57" stroke="#1c9a57" points="1888.44,-37.9853 1899.41,-37.7477 1892.96,-35.8352 1897.47,-33.685 1897.47,-33.685 1897.47,-33.685 1892.96,-35.8352 1895.54,-29.6224 1888.44,-37.9853 1888.44,-37.9853"/>
</g>
<!-- Release&#45;&gt;PendingItem -->
<g id="edge92" class="edge"><title>Release&#45;&gt;PendingItem</title>
<path fill="none" stroke="#b79d67" d="M2284.39,-147.119C2211.35,-120.864 2053.27,-64.0332 1974.53,-35.7255"/>
<ellipse fill="none" stroke="#b79d67" cx="2288.57" cy="-148.622" rx="4.00001" ry="4.00001"/>
<polygon fill="#b79d67" stroke="#b79d67" points="1974.28,-35.6375 1966.39,-28.0198 1969.58,-33.946 1964.87,-32.2545 1964.87,-32.2545 1964.87,-32.2545 1969.58,-33.946 1963.35,-36.4892 1974.28,-35.6375 1974.28,-35.6375"/>
</g>
<!-- RevenueCountry&#45;&gt;PendingItem -->
<g id="edge95" class="edge"><title>RevenueCountry&#45;&gt;PendingItem</title>
<path fill="none" stroke="#116f8f" d="M2151.22,-141.383C2102.03,-114.412 2013.98,-66.1402 1964.44,-38.9798"/>
<ellipse fill="none" stroke="#116f8f" cx="2154.79" cy="-143.338" rx="4.00002" ry="4.00002"/>
<polygon fill="#116f8f" stroke="#116f8f" points="1964.43,-38.9714 1957.82,-30.218 1960.04,-36.5677 1955.66,-34.1639 1955.66,-34.1639 1955.66,-34.1639 1960.04,-36.5677 1953.49,-38.1098 1964.43,-38.9714 1964.43,-38.9714"/>
</g>
<!-- SocialApp -->
<g id="node34" class="node"><title>SocialApp</title>
<ellipse fill="none" stroke="black" cx="2561" cy="-306" rx="51.2098" ry="18"/>
<text text-anchor="middle" x="2561" y="-300.4" font-family="Times,serif" font-size="14.00">SocialApp</text>
</g>
<!-- SocialApp&#45;&gt;PersonSocialApp -->
<g id="edge97" class="edge"><title>SocialApp&#45;&gt;PersonSocialApp</title>
<path fill="none" stroke="#4e1aec" d="M2591.8,-285.477C2633.5,-259.037 2707.7,-212.003 2751,-184.554"/>
<ellipse fill="none" stroke="#4e1aec" cx="2588.35" cy="-287.662" rx="4.00002" ry="4.00002"/>
<polygon fill="#4e1aec" stroke="#4e1aec" points="2751.04,-184.527 2761.9,-182.973 2755.27,-181.85 2759.49,-179.173 2759.49,-179.173 2759.49,-179.173 2755.27,-181.85 2757.08,-175.372 2751.04,-184.527 2751.04,-184.527"/>
</g>
<!-- Status -->
<g id="node35" class="node"><title>Status</title>
<ellipse fill="none" stroke="black" cx="2413" cy="-306" rx="34.4683" ry="18"/>
<text text-anchor="middle" x="2413" y="-300.4" font-family="Times,serif" font-size="14.00">Status</text>
</g>
<!-- Status&#45;&gt;MovieMetadata -->
<g id="edge99" class="edge"><title>Status&#45;&gt;MovieMetadata</title>
<path fill="none" stroke="#5a965a" d="M2411.78,-279.655C2412.23,-259.881 2416.13,-233.002 2432,-216 2440.74,-206.641 2505.34,-189.489 2555.77,-177.231"/>
<ellipse fill="none" stroke="#5a965a" cx="2411.78" cy="-283.912" rx="4" ry="4"/>
<polygon fill="#5a965a" stroke="#5a965a" points="2555.92,-177.193 2566.7,-179.223 2560.78,-176.021 2565.64,-174.848 2565.64,-174.848 2565.64,-174.848 2560.78,-176.021 2564.59,-170.474 2555.92,-177.193 2555.92,-177.193"/>
</g>
<!-- Tag&#45;&gt;PendingItem -->
<g id="edge101" class="edge"><title>Tag&#45;&gt;PendingItem</title>
<path fill="none" stroke="#ea4849" d="M1928,-135.558C1928,-110.444 1928,-72.164 1928,-46.3932"/>
<ellipse fill="none" stroke="#ea4849" cx="1928" cy="-139.871" rx="4" ry="4"/>
<polygon fill="#ea4849" stroke="#ea4849" points="1928,-46.1893 1932.5,-36.1892 1928,-41.1893 1928,-36.1893 1928,-36.1893 1928,-36.1893 1928,-41.1893 1923.5,-36.1893 1928,-46.1893 1928,-46.1893"/>
</g>
<!-- User&#45;&gt;AlternativeName -->
<g id="edge120" class="edge"><title>User&#45;&gt;AlternativeName</title>
<path fill="none" stroke="#48a8df" d="M1487.77,-279.867C1489.37,-261.24 1488.98,-235.766 1479,-216 1472.78,-203.686 1462.28,-193.176 1451.56,-184.841"/>
<ellipse fill="none" stroke="#48a8df" cx="1487.34" cy="-283.92" rx="4" ry="4"/>
<polygon fill="#48a8df" stroke="#48a8df" points="1451.48,-184.78 1446.04,-175.258 1447.43,-181.839 1443.39,-178.897 1443.39,-178.897 1443.39,-178.897 1447.43,-181.839 1440.74,-182.536 1451.48,-184.78 1451.48,-184.78"/>
</g>
<!-- User&#45;&gt;AlternativeTitle -->
<g id="edge122" class="edge"><title>User&#45;&gt;AlternativeTitle</title>
<path fill="none" stroke="#d97850" d="M1521.06,-302.982C1610.74,-297.77 1846.41,-282.119 2041,-252 2108.29,-241.584 2295.24,-199.457 2392.86,-177.099"/>
<ellipse fill="none" stroke="#d97850" cx="1516.84" cy="-303.224" rx="4" ry="4"/>
<polygon fill="#d97850" stroke="#d97850" points="2393.14,-177.037 2403.89,-179.189 2398.01,-175.92 2402.88,-174.802 2402.88,-174.802 2402.88,-174.802 2398.01,-175.92 2401.88,-170.416 2393.14,-177.037 2393.14,-177.037"/>
</g>
<!-- User&#45;&gt;Cast -->
<g id="edge111" class="edge"><title>User&#45;&gt;Cast</title>
<path fill="none" stroke="#9f1d26" d="M1462.64,-285.378C1439.93,-265.437 1402.23,-234.871 1365,-216 1316.09,-191.21 1298.25,-199.49 1247,-180 1245.12,-179.284 1243.19,-178.516 1241.26,-177.718"/>
<ellipse fill="none" stroke="#9f1d26" cx="1465.64" cy="-288.046" rx="4.00002" ry="4.00002"/>
<polygon fill="#9f1d26" stroke="#9f1d26" points="1240.88,-177.549 1233.5,-169.435 1236.29,-175.556 1231.71,-173.562 1231.71,-173.562 1231.71,-173.562 1236.29,-175.556 1229.91,-177.689 1240.88,-177.549 1240.88,-177.549"/>
</g>
<!-- User&#45;&gt;Crew -->
<g id="edge112" class="edge"><title>User&#45;&gt;Crew</title>
<path fill="none" stroke="#d65c4c" d="M1477.92,-280.301C1471.78,-260.308 1460.37,-232.802 1441,-216 1401.18,-181.46 1377.42,-198.328 1328,-180 1325.93,-179.233 1323.81,-178.419 1321.68,-177.579"/>
<ellipse fill="none" stroke="#d65c4c" cx="1479.05" cy="-284.245" rx="4.00001" ry="4.00001"/>
<polygon fill="#d65c4c" stroke="#d65c4c" points="1321.65,-177.567 1314.09,-169.627 1317.02,-175.681 1312.39,-173.794 1312.39,-173.794 1312.39,-173.794 1317.02,-175.681 1310.7,-177.962 1321.65,-177.567 1321.65,-177.567"/>
</g>
<!-- User&#45;&gt;Follow -->
<g id="edge106" class="edge"><title>User&#45;&gt;Follow</title>
<path fill="none" stroke="#f4df29" d="M1446.63,-304.033C1315.75,-300.381 878.603,-285.877 743,-252 704.779,-242.452 699.497,-228.081 662,-216 587.248,-191.915 538.555,-240.928 489,-180 477.969,-166.437 484.715,-93.879 496,-72 502.883,-58.6558 514.672,-47.2059 526.062,-38.3987"/>
<ellipse fill="none" stroke="#f4df29" cx="1450.81" cy="-304.148" rx="4" ry="4"/>
<polygon fill="#f4df29" stroke="#f4df29" points="526.127,-38.3515 536.859,-36.1007 530.168,-35.4075 534.21,-32.4634 534.21,-32.4634 534.21,-32.4634 530.168,-35.4075 531.56,-28.8262 526.127,-38.3515 526.127,-38.3515"/>
</g>
<!-- User&#45;&gt;Image -->
<g id="edge107" class="edge"><title>User&#45;&gt;Image</title>
<path fill="none" stroke="#d0d37b" d="M1446.94,-302.386C1378.8,-297.01 1229.38,-282.56 1107,-252 1030.62,-232.928 944.942,-198.477 898.166,-178.493"/>
<ellipse fill="none" stroke="#d0d37b" cx="1451.24" cy="-302.719" rx="4" ry="4"/>
<polygon fill="#d0d37b" stroke="#d0d37b" points="897.978,-178.412 890.572,-170.326 893.386,-176.436 888.793,-174.459 888.793,-174.459 888.793,-174.459 893.386,-176.436 887.014,-178.593 897.978,-178.412 897.978,-178.412"/>
</g>
<!-- User&#45;&gt;Like -->
<g id="edge123" class="edge"><title>User&#45;&gt;Like</title>
<path fill="none" stroke="#4cdafc" d="M1446.77,-304.198C1295.76,-300.728 733.614,-285.643 662,-252 642.081,-242.642 647.03,-227.055 628,-216 569.465,-181.995 533.801,-221.088 480,-180 435.067,-145.685 409.719,-81.8408 398.355,-45.7157"/>
<ellipse fill="none" stroke="#4cdafc" cx="1450.88" cy="-304.291" rx="4" ry="4"/>
<polygon fill="#4cdafc" stroke="#4cdafc" points="398.278,-45.4581 399.703,-34.5851 396.836,-40.6705 395.394,-35.883 395.394,-35.883 395.394,-35.883 396.836,-40.6705 391.085,-37.1809 398.278,-45.4581 398.278,-45.4581"/>
</g>
<!-- User&#45;&gt;List -->
<g id="edge104" class="edge"><title>User&#45;&gt;List</title>
<path fill="none" stroke="#547dce" d="M1446.5,-304.618C1330.45,-302.991 978.714,-294.579 874,-252 850.594,-242.483 852.311,-227.86 830,-216 780.833,-189.864 756.934,-209.961 710,-180 683.756,-163.247 661.034,-135.377 646.782,-115.283"/>
<ellipse fill="none" stroke="#547dce" cx="1450.76" cy="-304.675" rx="4" ry="4"/>
<polygon fill="#547dce" stroke="#547dce" points="646.703,-115.168 644.732,-104.381 643.865,-111.052 641.027,-106.935 641.027,-106.935 641.027,-106.935 643.865,-111.052 637.322,-109.489 646.703,-115.168 646.703,-115.168"/>
</g>
<!-- User&#45;&gt;ListItem -->
<g id="edge105" class="edge"><title>User&#45;&gt;ListItem</title>
<path fill="none" stroke="#5c3f4b" d="M1446.58,-304.815C1334.03,-303.757 1000.39,-296.824 903,-252 882.158,-242.408 884.941,-228.948 866,-216 834.147,-194.225 812.802,-208.688 787,-180 753.915,-143.215 754.369,-81.5402 757.977,-46.1577"/>
<ellipse fill="none" stroke="#5c3f4b" cx="1450.61" cy="-304.849" rx="4" ry="4"/>
<polygon fill="#5c3f4b" stroke="#5c3f4b" points="757.994,-46.009 763.633,-36.6041 758.579,-41.0434 759.164,-36.0777 759.164,-36.0777 759.164,-36.0777 758.579,-41.0434 754.695,-35.5513 757.994,-46.009 757.994,-46.009"/>
</g>
<!-- User&#45;&gt;Movie -->
<g id="edge108" class="edge"><title>User&#45;&gt;Movie</title>
<path fill="none" stroke="#b8f979" d="M1518.77,-297.225C1576.52,-284.309 1692.03,-258.476 1754.51,-244.502"/>
<ellipse fill="none" stroke="#b8f979" cx="1514.86" cy="-298.098" rx="4.00001" ry="4.00001"/>
<polygon fill="#b8f979" stroke="#b8f979" points="1754.68,-244.465 1765.42,-246.674 1759.56,-243.374 1764.44,-242.282 1764.44,-242.282 1764.44,-242.282 1759.56,-243.374 1763.46,-237.891 1754.68,-244.465 1754.68,-244.465"/>
</g>
<!-- User&#45;&gt;MovieGenre -->
<g id="edge113" class="edge"><title>User&#45;&gt;MovieGenre</title>
<path fill="none" stroke="#35809c" d="M1521.61,-304.619C1592.72,-302.884 1750.93,-294.15 1876,-252 1923.29,-236.063 1972.51,-205.505 2002.95,-184.689"/>
<ellipse fill="none" stroke="#35809c" cx="1517.38" cy="-304.711" rx="4" ry="4"/>
<polygon fill="#35809c" stroke="#35809c" points="2003.18,-184.531 2013.96,-182.531 2007.29,-181.682 2011.4,-178.833 2011.4,-178.833 2011.4,-178.833 2007.29,-181.682 2008.83,-175.135 2003.18,-184.531 2003.18,-184.531"/>
</g>
<!-- User&#45;&gt;MovieKeyword -->
<g id="edge114" class="edge"><title>User&#45;&gt;MovieKeyword</title>
<path fill="none" stroke="#c525a0" d="M1521.3,-304.031C1695.48,-299.397 2429.95,-278.615 2658,-252 2803.89,-234.973 2972.78,-197.954 3060.37,-177.43"/>
<ellipse fill="none" stroke="#c525a0" cx="1517.19" cy="-304.14" rx="4" ry="4"/>
<polygon fill="#c525a0" stroke="#c525a0" points="3060.4,-177.424 3071.16,-179.513 3065.26,-176.278 3070.13,-175.132 3070.13,-175.132 3070.13,-175.132 3065.26,-176.278 3069.1,-170.752 3060.4,-177.424 3060.4,-177.424"/>
</g>
<!-- User&#45;&gt;MovieLanguage -->
<g id="edge115" class="edge"><title>User&#45;&gt;MovieLanguage</title>
<path fill="none" stroke="#b37ed9" d="M1521.73,-303.959C1686.43,-299.288 2343.35,-279.281 2548,-252 2674.25,-235.17 2819.39,-199.382 2897.7,-178.681"/>
<ellipse fill="none" stroke="#b37ed9" cx="1517.36" cy="-304.083" rx="4" ry="4"/>
<polygon fill="#b37ed9" stroke="#b37ed9" points="2898.17,-178.556 2908.99,-180.336 2903,-177.271 2907.83,-175.987 2907.83,-175.987 2907.83,-175.987 2903,-177.271 2906.68,-171.638 2898.17,-178.556 2898.17,-178.556"/>
</g>
<!-- User&#45;&gt;MovieMetadata -->
<g id="edge116" class="edge"><title>User&#45;&gt;MovieMetadata</title>
<path fill="none" stroke="#3c3b07" d="M1521.13,-303.938C1621.77,-300.646 1908.03,-288.53 2143,-252 2212.88,-241.136 2228.54,-229.32 2298,-216 2402.63,-195.933 2430.13,-198.821 2535,-180 2541.2,-178.888 2547.65,-177.665 2554.08,-176.401"/>
<ellipse fill="none" stroke="#3c3b07" cx="1517.08" cy="-304.067" rx="4" ry="4"/>
<polygon fill="#3c3b07" stroke="#3c3b07" points="2554.34,-176.35 2565.03,-178.805 2559.25,-175.371 2564.15,-174.392 2564.15,-174.392 2564.15,-174.392 2559.25,-175.371 2563.27,-169.979 2554.34,-176.35 2554.34,-176.35"/>
</g>
<!-- User&#45;&gt;Person -->
<g id="edge110" class="edge"><title>User&#45;&gt;Person</title>
<path fill="none" stroke="#5466c9" d="M1448.7,-297.534C1387.66,-284.627 1262.62,-258.183 1196.39,-244.177"/>
<ellipse fill="none" stroke="#5466c9" cx="1453" cy="-298.444" rx="4.00001" ry="4.00001"/>
<polygon fill="#5466c9" stroke="#5466c9" points="1196.07,-244.109 1187.22,-237.637 1191.18,-243.074 1186.29,-242.039 1186.29,-242.039 1186.29,-242.039 1191.18,-243.074 1185.36,-246.442 1196.07,-244.109 1196.07,-244.109"/>
</g>
<!-- User&#45;&gt;PersonSocialApp -->
<g id="edge121" class="edge"><title>User&#45;&gt;PersonSocialApp</title>
<path fill="none" stroke="#b49ccc" d="M1521.23,-303.827C1630.92,-300.057 1962.33,-286.429 2235,-252 2323.3,-240.85 2344.1,-229.972 2432,-216 2549.82,-197.272 2580.3,-199.448 2698,-180 2704.63,-178.904 2711.53,-177.688 2718.42,-176.423"/>
<ellipse fill="none" stroke="#b49ccc" cx="1517.11" cy="-303.966" rx="4" ry="4"/>
<polygon fill="#b49ccc" stroke="#b49ccc" points="2718.63,-176.384 2729.29,-178.969 2723.55,-175.465 2728.46,-174.545 2728.46,-174.545 2728.46,-174.545 2723.55,-175.465 2727.63,-170.122 2718.63,-176.384 2718.63,-176.384"/>
</g>
<!-- User&#45;&gt;ProductionCompany -->
<g id="edge117" class="edge"><title>User&#45;&gt;ProductionCompany</title>
<path fill="none" stroke="#bab9b8" d="M1502.17,-283.14C1523.49,-257.479 1558.78,-215.01 1581.19,-188.045"/>
<ellipse fill="none" stroke="#bab9b8" cx="1499.41" cy="-286.457" rx="4.00002" ry="4.00002"/>
<polygon fill="#bab9b8" stroke="#bab9b8" points="1581.31,-187.901 1591.16,-183.086 1584.5,-184.056 1587.7,-180.21 1587.7,-180.21 1587.7,-180.21 1584.5,-184.056 1584.24,-177.334 1581.31,-187.901 1581.31,-187.901"/>
</g>
<!-- User&#45;&gt;Release -->
<g id="edge118" class="edge"><title>User&#45;&gt;Release</title>
<path fill="none" stroke="#74d5d2" d="M1521.05,-301.683C1597.45,-294.602 1777.89,-276.62 1928,-252 2082.14,-226.719 2121.21,-220.766 2272,-180 2275.39,-179.083 2278.89,-178.068 2282.39,-177.004"/>
<ellipse fill="none" stroke="#74d5d2" cx="1516.67" cy="-302.086" rx="4" ry="4"/>
<polygon fill="#74d5d2" stroke="#74d5d2" points="2282.62,-176.929 2293.51,-178.206 2287.39,-175.422 2292.16,-173.916 2292.16,-173.916 2292.16,-173.916 2287.39,-175.422 2290.8,-169.625 2282.62,-176.929 2282.62,-176.929"/>
</g>
<!-- User&#45;&gt;Tag -->
<g id="edge119" class="edge"><title>User&#45;&gt;Tag</title>
<path fill="none" stroke="#89fc5e" d="M1521.07,-302.538C1600.92,-296.752 1786.4,-280.577 1842,-252 1857.73,-243.917 1888.78,-209.437 1908.95,-185.845"/>
<ellipse fill="none" stroke="#89fc5e" cx="1516.77" cy="-302.844" rx="4" ry="4"/>
<polygon fill="#89fc5e" stroke="#89fc5e" points="1909.12,-185.643 1919.02,-180.926 1912.36,-181.83 1915.59,-178.016 1915.59,-178.016 1915.59,-178.016 1912.36,-181.83 1912.16,-175.106 1909.12,-185.643 1909.12,-185.643"/>
</g>
<!-- User&#45;&gt;UserBadge -->
<g id="edge103" class="edge"><title>User&#45;&gt;UserBadge</title>
<path fill="none" stroke="#ecc5a8" d="M1446.68,-305.096C1327.47,-304.886 945.421,-300.222 634,-252 628.068,-251.081 621.897,-249.886 615.8,-248.554"/>
<ellipse fill="none" stroke="#ecc5a8" cx="1450.8" cy="-305.1" rx="4" ry="4"/>
<polygon fill="#ecc5a8" stroke="#ecc5a8" points="615.406,-248.463 606.678,-241.824 610.535,-247.335 605.664,-246.208 605.664,-246.208 605.664,-246.208 610.535,-247.335 604.649,-250.592 615.406,-248.463 615.406,-248.463"/>
</g>
<!-- User&#45;&gt;Video -->
<g id="edge109" class="edge"><title>User&#45;&gt;Video</title>
<path fill="none" stroke="#99bb17" d="M1446.77,-304.499C1364.17,-302.626 1159.86,-293.769 995,-252 989.88,-250.703 821.944,-184.386 819,-180 804.688,-158.682 821.795,-131.881 838.483,-113.288"/>
<ellipse fill="none" stroke="#99bb17" cx="1450.84" cy="-304.585" rx="4" ry="4"/>
<polygon fill="#99bb17" stroke="#99bb17" points="838.64,-113.122 848.784,-108.957 842.079,-109.492 845.517,-105.862 845.517,-105.862 845.517,-105.862 842.079,-109.492 842.25,-102.768 838.64,-113.122 838.64,-113.122"/>
</g>
<!-- Video&#45;&gt;Follow -->
<g id="edge130" class="edge"><title>Video&#45;&gt;Follow</title>
<path fill="none" stroke="#40cbf4" d="M823.236,-80.1033C766.298,-67.0355 660.367,-42.7236 600.726,-29.0355"/>
<ellipse fill="none" stroke="#40cbf4" cx="827.46" cy="-81.0728" rx="4.00001" ry="4.00001"/>
<polygon fill="#40cbf4" stroke="#40cbf4" points="600.605,-29.0078 591.865,-22.3848 595.732,-27.8893 590.858,-26.7708 590.858,-26.7708 590.858,-26.7708 595.732,-27.8893 589.852,-31.1568 600.605,-29.0078 600.605,-29.0078"/>
</g>
<!-- Video&#45;&gt;Image -->
<g id="edge129" class="edge"><title>Video&#45;&gt;Image</title>
<path fill="none" stroke="#d2318b" d="M868.851,-115.926C869.236,-121.735 869.359,-127.948 869.209,-133.848"/>
<ellipse fill="none" stroke="#d2318b" cx="868.468" cy="-111.772" rx="4" ry="4"/>
<polygon fill="#d2318b" stroke="#d2318b" points="869.197,-134.071 864.143,-143.803 868.916,-139.063 868.636,-144.055 868.636,-144.055 868.636,-144.055 868.916,-139.063 873.129,-144.307 869.197,-134.071 869.197,-134.071"/>
</g>
<!-- Video&#45;&gt;Like -->
<g id="edge134" class="edge"><title>Video&#45;&gt;Like</title>
<path fill="none" stroke="#aae168" d="M821.52,-82.9839C731.459,-69.599 515.607,-37.519 428.448,-24.5655"/>
<ellipse fill="none" stroke="#aae168" cx="825.67" cy="-83.6006" rx="4.00001" ry="4.00001"/>
<polygon fill="#aae168" stroke="#aae168" points="428.365,-24.5532 419.135,-18.632 423.419,-23.8182 418.473,-23.0831 418.473,-23.0831 418.473,-23.0831 423.419,-23.8182 417.812,-27.5342 428.365,-24.5532 428.365,-24.5532"/>
</g>
<!-- Video&#45;&gt;ListItem -->
<g id="edge128" class="edge"><title>Video&#45;&gt;ListItem</title>
<path fill="none" stroke="#007d85" d="M835.515,-70.4605C821.942,-60.9597 805.376,-49.3634 791.408,-39.5857"/>
<ellipse fill="none" stroke="#007d85" cx="838.966" cy="-72.8764" rx="4.00002" ry="4.00002"/>
<polygon fill="#007d85" stroke="#007d85" points="791.289,-39.5023 785.677,-30.0811 787.193,-36.635 783.097,-33.7677 783.097,-33.7677 783.097,-33.7677 787.193,-36.635 780.516,-37.4542 791.289,-39.5023 791.289,-39.5023"/>
</g>
<!-- Video&#45;&gt;MediaKeyword -->
<g id="edge126" class="edge"><title>Video&#45;&gt;MediaKeyword</title>
<path fill="none" stroke="#3fc155" d="M881.105,-67.4296C887.827,-59.8401 895.429,-51.2575 902.346,-43.4481"/>
<ellipse fill="none" stroke="#3fc155" cx="878.412" cy="-70.4704" rx="4.00002" ry="4.00002"/>
<polygon fill="#3fc155" stroke="#3fc155" points="902.346,-43.4477 912.345,-38.9455 905.662,-39.7047 908.977,-35.9618 908.977,-35.9618 908.977,-35.9618 905.662,-39.7047 905.608,-32.9781 902.346,-43.4477 902.346,-43.4477"/>
</g>
<!-- Video&#45;&gt;MediaTag -->
<g id="edge127" class="edge"><title>Video&#45;&gt;MediaTag</title>
<path fill="none" stroke="#2535ae" d="M820.576,-85.2606C733.75,-77.2965 526.379,-57.6135 353,-36 332.707,-33.4702 310.487,-30.3346 290.915,-27.4479"/>
<ellipse fill="none" stroke="#2535ae" cx="824.613" cy="-85.6299" rx="4" ry="4"/>
<polygon fill="#2535ae" stroke="#2535ae" points="290.837,-27.4363 281.607,-21.5145 285.891,-26.7009 280.945,-25.9655 280.945,-25.9655 280.945,-25.9655 285.891,-26.7009 280.284,-30.4166 290.837,-27.4363 290.837,-27.4363"/>
</g>
<!-- Video&#45;&gt;PendingItem -->
<g id="edge133" class="edge"><title>Video&#45;&gt;PendingItem</title>
<path fill="none" stroke="#874f72" d="M904.138,-86.233C1067.17,-75.5273 1657.51,-36.7623 1859.59,-23.4921"/>
<ellipse fill="none" stroke="#874f72" cx="899.655" cy="-86.5273" rx="4" ry="4"/>
<polygon fill="#874f72" stroke="#874f72" points="1859.8,-23.4787 1870.07,-27.3137 1864.79,-23.151 1869.78,-22.8233 1869.78,-22.8233 1869.78,-22.8233 1864.79,-23.151 1869.48,-18.333 1859.8,-23.4787 1859.8,-23.4787"/>
</g>
<!-- Video&#45;&gt;Report -->
<g id="edge132" class="edge"><title>Video&#45;&gt;Report</title>
<path fill="none" stroke="#68a686" d="M898.123,-77.1842C936.474,-64.6395 996.903,-44.8729 1036.5,-31.9222"/>
<ellipse fill="none" stroke="#68a686" cx="894.219" cy="-78.4609" rx="4.00001" ry="4.00001"/>
<polygon fill="#68a686" stroke="#68a686" points="1036.58,-31.894 1047.48,-33.062 1041.33,-30.3395 1046.09,-28.785 1046.09,-28.785 1046.09,-28.785 1041.33,-30.3395 1044.69,-24.508 1036.58,-31.894 1036.58,-31.894"/>
</g>
<!-- Video&#45;&gt;View -->
<g id="edge131" class="edge"><title>Video&#45;&gt;View</title>
<path fill="none" stroke="#4d6e55" d="M901.87,-81.4368C952.996,-71.6089 1044.33,-53.6154 1122,-36 1131.78,-33.7826 1142.3,-31.2318 1152.08,-28.7918"/>
<ellipse fill="none" stroke="#4d6e55" cx="897.643" cy="-82.2474" rx="4.00001" ry="4.00001"/>
<polygon fill="#4d6e55" stroke="#4d6e55" points="1152.25,-28.7507 1163.04,-30.6716 1157.1,-27.5293 1161.94,-26.3079 1161.94,-26.3079 1161.94,-26.3079 1157.1,-27.5293 1160.85,-21.9442 1152.25,-28.7507 1152.25,-28.7507"/>
</g>
<!-- ActiveRecord::Base -->
<g id="node41" class="node"><title>ActiveRecord::Base</title>
<ellipse fill="none" stroke="black" cx="1446" cy="-475" rx="88.2033" ry="18"/>
<text text-anchor="middle" x="1446" y="-469.4" font-family="Times,serif" font-size="14.00">ActiveRecord::Base</text>
</g>
<!-- ActiveRecord::Base&#45;&gt;AdminUser -->
<g id="edge1" class="edge"><title>ActiveRecord::Base&#45;&gt;AdminUser</title>
<path fill="none" stroke="black" d="M1416.52,-457.904C1397.55,-448.434 1372.04,-437.305 1348,-432 1082.71,-373.463 395.243,-432.254 126,-396 118.097,-394.936 109.788,-393.347 101.765,-391.561"/>
<polyline fill="none" stroke="black" points="96.8134,-390.426 101.687,-391.543 "/>
</g>
<!-- ActiveRecord::Base&#45;&gt;AlternativeName -->
<g id="edge3" class="edge"><title>ActiveRecord::Base&#45;&gt;AlternativeName</title>
<path fill="none" stroke="black" d="M1460.08,-457.085C1484.86,-425.308 1532.7,-353.939 1522,-288 1516.6,-254.705 1518.74,-242.603 1498,-216 1486.57,-201.336 1469.87,-189.566 1454.45,-180.878"/>
<polyline fill="none" stroke="black" points="1449.71,-178.281 1454.09,-180.684 "/>
</g>
<!-- ActiveRecord::Base&#45;&gt;AlternativeTitle -->
<g id="edge5" class="edge"><title>ActiveRecord::Base&#45;&gt;AlternativeTitle</title>
<path fill="none" stroke="black" d="M1530.42,-469.582C1683.64,-460.643 2001.13,-437.634 2103,-396 2224.13,-346.496 2223.76,-283.274 2336,-216 2359.83,-201.718 2388.18,-188.864 2411.12,-179.392"/>
<polyline fill="none" stroke="black" points="2415.93,-177.422 2411.3,-179.317 "/>
</g>
<!-- ActiveRecord::Base&#45;&gt;Badge -->
<g id="edge8" class="edge"><title>ActiveRecord::Base&#45;&gt;Badge</title>
<path fill="none" stroke="black" d="M1415.01,-458.135C1396.11,-449.12 1371.2,-438.389 1348,-432 1231.28,-399.858 1195.87,-423.617 1078,-396 1072.21,-394.644 1066.15,-392.884 1060.32,-391.012"/>
<polyline fill="none" stroke="black" points="1055.49,-389.419 1060.24,-390.985 "/>
</g>
<!-- ActiveRecord::Base&#45;&gt;Cast -->
<g id="edge10" class="edge"><title>ActiveRecord::Base&#45;&gt;Cast</title>
<path fill="none" stroke="black" d="M1439.23,-456.972C1429.7,-433.964 1411.01,-392.129 1389,-360 1339.11,-287.168 1264,-213.331 1229.09,-180.548"/>
<polyline fill="none" stroke="black" points="1225.44,-177.13 1229.09,-180.547 "/>
</g>
<!-- ActiveRecord::Base&#45;&gt;Company -->
<g id="edge13" class="edge"><title>ActiveRecord::Base&#45;&gt;Company</title>
<path fill="none" stroke="black" d="M1416.05,-457.878C1397.11,-448.526 1371.8,-437.532 1348,-432 1197.8,-397.085 799.7,-449.311 655,-396 572.648,-365.66 496.26,-290.944 462.796,-254.979"/>
<polyline fill="none" stroke="black" points="459.31,-251.206 462.703,-254.878 "/>
</g>
<!-- ActiveRecord::Base&#45;&gt;Country -->
<g id="edge15" class="edge"><title>ActiveRecord::Base&#45;&gt;Country</title>
<path fill="none" stroke="black" d="M1532.66,-471.187C1674.09,-465.16 1946.8,-447.1 2027,-396 2051.64,-380.3 2067.68,-349.697 2076.29,-328.805"/>
<polyline fill="none" stroke="black" points="2078.21,-323.981 2076.36,-328.624 "/>
</g>
<!-- ActiveRecord::Base&#45;&gt;Crew -->
<g id="edge17" class="edge"><title>ActiveRecord::Base&#45;&gt;Crew</title>
<path fill="none" stroke="black" d="M1444.83,-456.977C1440.98,-412.615 1425.24,-291.658 1365,-216 1351.79,-199.405 1331.99,-185.939 1315.78,-176.734"/>
<polyline fill="none" stroke="black" points="1311.31,-174.251 1315.68,-176.679 "/>
</g>
<!-- ActiveRecord::Base&#45;&gt;Follow -->
<g id="edge18" class="edge"><title>ActiveRecord::Base&#45;&gt;Follow</title>
<path fill="none" stroke="black" d="M1416.51,-457.948C1397.54,-448.496 1372.03,-437.369 1348,-432 1235.81,-406.93 420.498,-439.286 314,-396 259.494,-373.846 216,-365.836 216,-307 216,-307 216,-307 216,-233 216,-92.8909 425.089,-40.989 515.813,-25.0632"/>
<polyline fill="none" stroke="black" points="520.83,-24.1982 515.903,-25.0479 "/>
</g>
<!-- ActiveRecord::Base&#45;&gt;Genre -->
<g id="edge21" class="edge"><title>ActiveRecord::Base&#45;&gt;Genre</title>
<path fill="none" stroke="black" d="M1415.55,-457.922C1396.64,-448.71 1371.53,-437.85 1348,-432 1253.65,-408.548 997.48,-442.31 912,-396 853.488,-364.3 813.487,-292.293 796.376,-256.304"/>
<polyline fill="none" stroke="black" points="794.21,-251.681 796.332,-256.209 "/>
</g>
<!-- ActiveRecord::Base&#45;&gt;Image -->
<g id="edge31" class="edge"><title>ActiveRecord::Base&#45;&gt;Image</title>
<path fill="none" stroke="black" d="M1416,-458.066C1397.05,-448.785 1371.74,-437.8 1348,-432 1243.44,-406.453 960.904,-444.856 865,-396 778.886,-352.132 690.243,-296.974 743,-216 760.907,-188.515 796.651,-175.181 824.492,-168.774"/>
<polyline fill="none" stroke="black" points="829.592,-167.656 824.708,-168.727 "/>
</g>
<!-- ActiveRecord::Base&#45;&gt;Keyword -->
<g id="edge33" class="edge"><title>ActiveRecord::Base&#45;&gt;Keyword</title>
<path fill="none" stroke="black" d="M1534.4,-473.745C1832.89,-472.277 2791.62,-462.388 2912,-396 2938.66,-381.296 2956.69,-349.938 2966.41,-328.657"/>
<polyline fill="none" stroke="black" points="2968.47,-324.012 2966.44,-328.582 "/>
</g>
<!-- ActiveRecord::Base&#45;&gt;Language -->
<g id="edge36" class="edge"><title>ActiveRecord::Base&#45;&gt;Language</title>
<path fill="none" stroke="black" d="M1531.98,-470.597C1750.85,-461.417 2317.19,-434.231 2393,-396 2447.71,-368.411 2474.35,-294.681 2484.66,-257.337"/>
<polyline fill="none" stroke="black" points="2486.06,-252.101 2484.77,-256.93 "/>
</g>
<!-- ActiveRecord::Base&#45;&gt;Like -->
<g id="edge37" class="edge"><title>ActiveRecord::Base&#45;&gt;Like</title>
<path fill="none" stroke="black" d="M1416.51,-457.928C1397.55,-448.467 1372.03,-437.339 1348,-432 1227.21,-405.166 342.576,-457.13 235,-396 194.161,-372.793 178,-353.973 178,-307 178,-307 178,-307 178,-233 178,-146.836 218.339,-125.35 286,-72 309.255,-53.6633 339.861,-39.0925 362.025,-29.9059"/>
<polyline fill="none" stroke="black" points="366.902,-27.9147 362.273,-29.8047 "/>
</g>
<!-- ActiveRecord::Base&#45;&gt;List -->
<g id="edge41" class="edge"><title>ActiveRecord::Base&#45;&gt;List</title>
<path fill="none" stroke="black" d="M1416.5,-458.006C1397.52,-448.576 1372.01,-437.452 1348,-432 1161.04,-389.54 663.746,-467.859 486,-396 399.293,-360.946 345.525,-304.069 377,-216 390.923,-177.042 401.278,-166.494 436,-144 487.003,-110.959 558.266,-98.3658 599.018,-93.6767"/>
<polyline fill="none" stroke="black" points="604.318,-93.0918 599.349,-93.6403 "/>
</g>
<!-- ActiveRecord::Base&#45;&gt;ListItem -->
<g id="edge42" class="edge"><title>ActiveRecord::Base&#45;&gt;ListItem</title>
<path fill="none" stroke="black" d="M1416.5,-457.98C1397.53,-448.54 1372.02,-437.416 1348,-432 1146.24,-386.504 613.873,-462.399 418,-396 353.068,-373.989 292,-375.561 292,-307 292,-307 292,-307 292,-233 292,-139.466 604.21,-56.243 719.708,-28.656"/>
<polyline fill="none" stroke="black" points="724.727,-27.4627 719.863,-28.6193 "/>
</g>
<!-- ActiveRecord::Base&#45;&gt;ListKeyword -->
<g id="edge43" class="edge"><title>ActiveRecord::Base&#45;&gt;ListKeyword</title>
<path fill="none" stroke="black" d="M1410.2,-458.534C1391.66,-450.554 1368.64,-440.696 1348,-432 1318.16,-419.429 1284.31,-405.423 1258.91,-394.968"/>
<polyline fill="none" stroke="black" points="1254.27,-393.058 1258.9,-394.961 "/>
</g>
<!-- ActiveRecord::Base&#45;&gt;ListTag -->
<g id="edge44" class="edge"><title>ActiveRecord::Base&#45;&gt;ListTag</title>
<path fill="none" stroke="black" d="M1427.05,-457.016C1408.51,-440.405 1380.35,-415.158 1361.1,-397.915"/>
<polyline fill="none" stroke="black" points="1357.38,-394.578 1361.1,-397.915 "/>
</g>
<!-- ActiveRecord::Base&#45;&gt;MediaKeyword -->
<g id="edge45" class="edge"><title>ActiveRecord::Base&#45;&gt;MediaKeyword</title>
<path fill="none" stroke="black" d="M1415.52,-458.056C1396.6,-448.893 1371.49,-438.037 1348,-432 1269.06,-411.709 1042.25,-451.969 983,-396 956.957,-371.399 932.801,-119.212 925.937,-41.6035"/>
<polyline fill="none" stroke="black" points="925.473,-36.3229 925.911,-41.3037 "/>
</g>
<!-- ActiveRecord::Base&#45;&gt;MediaTag -->
<g id="edge46" class="edge"><title>ActiveRecord::Base&#45;&gt;MediaTag</title>
<path fill="none" stroke="black" d="M1416.52,-457.917C1397.55,-448.452 1372.04,-437.324 1348,-432 1222.1,-404.116 297.69,-463.797 188,-396 149.771,-372.372 140,-351.942 140,-307 140,-307 140,-307 140,-161 140,-109.663 183.596,-63.0308 212.031,-38.076"/>
<polyline fill="none" stroke="black" points="216.109,-34.5535 212.325,-37.8218 "/>
</g>
<!-- ActiveRecord::Base&#45;&gt;Movie -->
<g id="edge65" class="edge"><title>ActiveRecord::Base&#45;&gt;Movie</title>
<path fill="none" stroke="black" d="M1492.85,-459.664C1531.75,-446.527 1587.54,-424.756 1631,-396 1693.42,-354.699 1752.96,-288.173 1780.71,-255.061"/>
<polyline fill="none" stroke="black" points="1783.94,-251.193 1780.73,-255.034 "/>
</g>
<!-- ActiveRecord::Base&#45;&gt;MovieGenre -->
<g id="edge67" class="edge"><title>ActiveRecord::Base&#45;&gt;MovieGenre</title>
<path fill="none" stroke="black" d="M1506.29,-461.753C1562.54,-449.163 1648.06,-427.016 1718,-396 1821.45,-350.125 1839.89,-323.016 1928,-252 1956.9,-228.707 1989.39,-200.914 2010.47,-182.658"/>
<polyline fill="none" stroke="black" points="2014.27,-179.363 2010.49,-182.638 "/>
</g>
<!-- ActiveRecord::Base&#45;&gt;MovieKeyword -->
<g id="edge69" class="edge"><title>ActiveRecord::Base&#45;&gt;MovieKeyword</title>
<path fill="none" stroke="black" d="M1533.52,-472.438C1770.28,-467.541 2419.42,-449.489 2626,-396 2722.03,-371.136 2991.04,-231.289 3086.16,-181.008"/>
<polyline fill="none" stroke="black" points="3090.83,-178.539 3086.41,-180.877 "/>
</g>
<!-- ActiveRecord::Base&#45;&gt;MovieLanguage -->
<g id="edge71" class="edge"><title>ActiveRecord::Base&#45;&gt;MovieLanguage</title>
<path fill="none" stroke="black" d="M1534.05,-473.278C1764.33,-470.538 2379.94,-457.504 2573,-396 2649.84,-371.523 2853.29,-233.501 2927.45,-182.201"/>
<polyline fill="none" stroke="black" points="2931.73,-179.24 2927.62,-182.087 "/>
</g>
<!-- ActiveRecord::Base&#45;&gt;MovieMetadata -->
<g id="edge73" class="edge"><title>ActiveRecord::Base&#45;&gt;MovieMetadata</title>
<path fill="none" stroke="black" d="M1530.83,-469.775C1692.45,-460.879 2038.35,-437.536 2150,-396 2282.41,-346.74 2283.44,-274.571 2412,-216 2438.04,-204.139 2508.2,-187.108 2559.2,-175.579"/>
<polyline fill="none" stroke="black" points="2564.39,-174.411 2559.51,-175.51 "/>
</g>
<!-- ActiveRecord::Base&#45;&gt;PendingItem -->
<g id="edge74" class="edge"><title>ActiveRecord::Base&#45;&gt;PendingItem</title>
<path fill="none" stroke="black" d="M1533.55,-472.424C1811.32,-466.956 2670.59,-446.312 2944,-396 3070.76,-372.675 3220,-435.887 3220,-307 3220,-307 3220,-307 3220,-161 3220,-36.2667 2256.23,-21.0688 1993.48,-19.2432"/>
<polyline fill="none" stroke="black" points="1988.15,-19.2073 1993.15,-19.2411 "/>
</g>
<!-- ActiveRecord::Base&#45;&gt;Person -->
<g id="edge87" class="edge"><title>ActiveRecord::Base&#45;&gt;Person</title>
<path fill="none" stroke="black" d="M1414.02,-458.114C1395.19,-449.319 1370.69,-438.819 1348,-432 1261.92,-406.132 1206.62,-464.98 1149,-396 1116.03,-356.527 1132.51,-290.651 1144.39,-256.699"/>
<polyline fill="none" stroke="black" points="1146.11,-251.928 1144.42,-256.633 "/>
</g>
<!-- ActiveRecord::Base&#45;&gt;PersonSocialApp -->
<g id="edge89" class="edge"><title>ActiveRecord::Base&#45;&gt;PersonSocialApp</title>
<path fill="none" stroke="black" d="M1534.4,-474.042C1758.75,-473.13 2345.25,-464.102 2526,-396 2640.28,-352.945 2735.4,-232.869 2770.5,-184.046"/>
<polyline fill="none" stroke="black" points="2773.51,-179.824 2770.61,-183.894 "/>
</g>
<!-- ActiveRecord::Base&#45;&gt;ProductionCompany -->
<g id="edge91" class="edge"><title>ActiveRecord::Base&#45;&gt;ProductionCompany</title>
<path fill="none" stroke="black" d="M1466.66,-457.379C1483.6,-442.782 1507.14,-420.155 1522,-396 1565.4,-325.467 1588.91,-228.336 1597.8,-185.192"/>
<polyline fill="none" stroke="black" points="1598.81,-180.204 1597.81,-185.104 "/>
</g>
<!-- ActiveRecord::Base&#45;&gt;Release -->
<g id="edge93" class="edge"><title>ActiveRecord::Base&#45;&gt;Release</title>
<path fill="none" stroke="black" d="M1530.31,-469.424C1675.44,-460.531 1965.76,-438.004 2058,-396 2167.44,-346.165 2169.09,-294.714 2260,-216 2273.4,-204.4 2288.59,-191.604 2300.71,-181.492"/>
<polyline fill="none" stroke="black" points="2304.69,-178.171 2300.85,-181.374 "/>
</g>
<!-- ActiveRecord::Base&#45;&gt;Report -->
<g id="edge94" class="edge"><title>ActiveRecord::Base&#45;&gt;Report</title>
<path fill="none" stroke="black" d="M1415.54,-457.988C1396.62,-448.8 1371.51,-437.942 1348,-432 1261.9,-410.24 1017.99,-453.129 950,-396 918.634,-369.645 926,-347.969 926,-307 926,-307 926,-307 926,-233 926,-187.527 1017.97,-82.0617 1057.88,-38.4325"/>
<polyline fill="none" stroke="black" points="1061.34,-34.6545 1057.96,-38.3382 "/>
</g>
<!-- ActiveRecord::Base&#45;&gt;RevenueCountry -->
<g id="edge96" class="edge"><title>ActiveRecord::Base&#45;&gt;RevenueCountry</title>
<path fill="none" stroke="black" d="M1512.75,-463.183C1578.81,-451.234 1682.06,-429.182 1767,-396 1923.18,-334.986 2093.14,-226.064 2158.87,-182.142"/>
<polyline fill="none" stroke="black" points="2163.05,-179.344 2158.9,-182.127 "/>
</g>
<!-- ActiveRecord::Base&#45;&gt;SocialApp -->
<g id="edge98" class="edge"><title>ActiveRecord::Base&#45;&gt;SocialApp</title>
<path fill="none" stroke="black" d="M1532.88,-471.553C1768.66,-464.35 2408.48,-440.858 2492,-396 2519.7,-381.121 2539.83,-349.808 2550.97,-328.584"/>
<polyline fill="none" stroke="black" points="2553.34,-323.953 2551.06,-328.403 "/>
</g>
<!-- ActiveRecord::Base&#45;&gt;Status -->
<g id="edge100" class="edge"><title>ActiveRecord::Base&#45;&gt;Status</title>
<path fill="none" stroke="black" d="M1532.6,-471.264C1747.94,-463.811 2295.26,-440.659 2364,-396 2387.55,-380.699 2400.76,-349.999 2407.38,-328.976"/>
<polyline fill="none" stroke="black" points="2408.85,-324.12 2407.41,-328.906 "/>
</g>
<!-- ActiveRecord::Base&#45;&gt;Tag -->
<g id="edge102" class="edge"><title>ActiveRecord::Base&#45;&gt;Tag</title>
<path fill="none" stroke="black" d="M1497.65,-460.271C1543.92,-446.972 1612.93,-424.633 1669,-396 1768.81,-345.031 1799.95,-334.315 1876,-252 1894.81,-231.643 1909.89,-203.343 1918.87,-184.162"/>
<polyline fill="none" stroke="black" points="1921.02,-179.492 1918.93,-184.033 "/>
</g>
<!-- ActiveRecord::Base&#45;&gt;User -->
<g id="edge124" class="edge"><title>ActiveRecord::Base&#45;&gt;User</title>
<path fill="none" stroke="black" d="M1449.92,-456.757C1456.87,-426.223 1471.33,-362.698 1478.99,-329.037"/>
<polyline fill="none" stroke="black" points="1480.15,-323.9 1479.04,-328.776 "/>
</g>
<!-- ActiveRecord::Base&#45;&gt;UserBadge -->
<g id="edge125" class="edge"><title>ActiveRecord::Base&#45;&gt;UserBadge</title>
<path fill="none" stroke="black" d="M1416.04,-457.915C1397.1,-448.577 1371.79,-437.585 1348,-432 1209.76,-399.539 837.945,-457.603 710,-396 646.46,-365.407 598.565,-292.88 577.618,-256.537"/>
<polyline fill="none" stroke="black" points="574.961,-251.868 577.434,-256.214 "/>
</g>
<!-- ActiveRecord::Base&#45;&gt;Video -->
<g id="edge135" class="edge"><title>ActiveRecord::Base&#45;&gt;Video</title>
<path fill="none" stroke="black" d="M1416.06,-457.837C1397.12,-448.47 1371.81,-437.474 1348,-432 1182.14,-393.871 743.427,-452.808 583,-396 481.106,-359.919 435.818,-348.443 387,-252 379.774,-237.725 377.231,-228.672 387,-216 441.142,-145.767 720.848,-107.146 823.858,-95.1298"/>
<polyline fill="none" stroke="black" points="828.922,-94.544 823.956,-95.1187 "/>
</g>
<!-- ActiveRecord::Base&#45;&gt;View -->
<g id="edge136" class="edge"><title>ActiveRecord::Base&#45;&gt;View</title>
<path fill="none" stroke="black" d="M1414.06,-457.978C1395.25,-449.137 1370.75,-438.637 1348,-432 1253.31,-404.37 1198.35,-466.142 1129,-396 1029.98,-295.857 1137.27,-102.365 1176.68,-39.365"/>
<polyline fill="none" stroke="black" points="1179.4,-35.0576 1176.73,-39.2867 "/>
</g>
</g>
</svg>
